<?xml version="1.0" encoding="UTF-8"?>
<svg id="Calque_1" xmlns="http://www.w3.org/2000/svg" version="1.1" viewBox="0 0 24 24">
  <!-- Generator: Adobe Illustrator 29.8.2, SVG Export Plug-In . SVG Version: 2.1.1 Build 3)  -->
  <circle cx="12" cy="12" r="12" fill="#ff2674"/>
  <g>
    <path d="M12.2,5.6c0-.2.3-.4.4-.4s.5,0,.7,0c.5,0,.9-.1,1.4-.2s.5-.1.8,0,.4.4.5.5c.4.4.9.9,1.3,1.4s.3.3.3.5v5.9c0,.3-.3.4-.6.4-.4,0-.8,0-1.2.2s0,0,0,0c.5.5,1,1,1.5,1.6s.5.5.6.9c.6,2.2-2.3,4.1-3.9,2.2-1-1.3-2.9-2.2-1.9-4.1s0-.1.1-.2h-.8c0,0,0,.2,0,.2,0,.7,0,1.4,0,2.1s.1,1-.1,1.3-.2.2-.2.2-.2,0-.2,0c-.6.1-1.2.2-1.8.2s-.7.2-1,0-.3-.3-.4-.4c-.6-.6-1.1-1.2-1.6-1.7h0c0-3.3,0-6.5,0-9.7,0-.2.2-.4.4-.5l2.9-.4c.1,0,.2,0,.3.2.4.4.8.8,1.1,1.2s.8.7.8.9v.8c.2,0,.5,0,.7-.1v-3.1ZM9.5,12.1l6-.9v-.3c0-1.8.2-3.8,0-5.6s0-.2,0-.3c-.1-.1-.2,0-.4,0-.8,0-1.6.2-2.3.3s-.3,0-.4.2v3.2c-.1.2-.2,0-.4.1-.6.1-1.2.2-1.8.2s-.6.1-.8.1-.1,0-.2-.1v-3.2c-.1-.2-.5,0-.6,0-.6,0-1.2.2-1.8.2s-.6,0-.7.2v9.6c.1.2.6,0,.8,0,.5,0,1.1-.1,1.6-.2s.7,0,.7-.3c0-1,0-2.1,0-3.2,0,0,0-.2,0-.2ZM14,13.2c-.6,0-1.3.6-1.6,1.2-.9,1.7.7,3.3,2.3,2.4s1.4-1.5,1.1-2.4-1-1.2-1.9-1.1Z" fill="#010000"/>
    <path d="M9.5,12.1s-.1.2,0,.2c0,1,0,2.2,0,3.2s-.5.3-.7.3c-.5,0-1.1.1-1.6.2s-.7.2-.8,0V6.4c.1-.3.5-.2.7-.2.6,0,1.2-.2,1.8-.2s.5-.2.6,0v3.2c0,0,.1.1.2.1.2,0,.6,0,.8-.1.6,0,1.2-.1,1.8-.2s.2,0,.3-.1v-3.2c.1-.2.3-.1.4-.2.7-.1,1.6-.2,2.3-.3s.2-.1.4,0,0,.2,0,.3c.1,1.8-.1,3.8,0,5.6v.3c0,0-6.1.9-6.1.9Z" fill="#fcfbfb"/>
    <path d="M14,13.2c.8-.1,1.6.3,1.9,1.1s-.3,2-1.1,2.4c-1.7.9-3.2-.7-2.3-2.4s1-1.1,1.6-1.2Z" fill="#fcfbfb"/>
  </g>
</svg>