<?xml version="1.0" encoding="UTF-8"?>
<svg id="Calque_1" xmlns="http://www.w3.org/2000/svg" version="1.1" xmlns:xlink="http://www.w3.org/1999/xlink" viewBox="0 0 188 159">
  <!-- Generator: Adobe Illustrator 29.8.2, SVG Export Plug-In . SVG Version: 2.1.1 Build 3)  -->
  <defs>
    <clipPath id="clippath">
      <rect x="1" y="1" width="186" height="157" rx="8" ry="8" fill="none"/>
    </clipPath>
    <linearGradient id="Dégradé_sans_nom" data-name="Dégradé sans nom" x1="94" y1="49" x2="94" y2="2" gradientTransform="translate(0 160) scale(1 -1)" gradientUnits="userSpaceOnUse">
      <stop offset="0" stop-color="#f8fbfd" stop-opacity="0"/>
      <stop offset="1" stop-color="#f8fbfd"/>
    </linearGradient>
    <clipPath id="clippath-1">
      <rect x="57.2" y="35.5" width="7" height="7.5" fill="none"/>
    </clipPath>
    <clipPath id="clippath-2">
      <rect x="122.3" y="35.1" width="7.7" height="8.3" fill="none"/>
    </clipPath>
    <clipPath id="clippath-3">
      <rect x="107" y="77.5" width="9.9" height="9.9" fill="none"/>
    </clipPath>
    <clipPath id="clippath-4">
      <path d="M93.7,30.6l-7.8,4.2v8.6c0,0,7.7,4.3,7.7,4.3l7.8-4.2v-8.6c0,0-7.7-4.3-7.7-4.3ZM100.5,43l-6.8,3.8-6.8-3.8v-7.6c0,0,6.9-3.8,6.9-3.8l6.8,3.8v7.6q0,0,0,0Z" fill="none"/>
    </clipPath>
    <clipPath id="clippath-5">
      <polygon points="92.9 32.6 96 32.9 97.4 34 99.2 37.2 99.6 37.6 98.3 40.3 95.1 42.2 91.2 42 88.3 40 87.1 37.5 88.6 35.9 89.7 33.8 91.5 32.6 92.9 32.6" fill="none"/>
    </clipPath>
    <clipPath id="clippath-6">
      <rect x="80.8" y="27" width="25.4" height="25.4" fill="none"/>
    </clipPath>
    <clipPath id="clippath-7">
      <path d="M97.7,41.3c.4.3.9.6,1.3,1.1.4.4.7.8,1,1.2.1-.4.2-1.1,0-2.1-.2-.9-.7-1.5-1-1.8-.4.5-.9,1.1-1.3,1.6h0Z" fill="none"/>
    </clipPath>
    <clipPath id="clippath-8">
      <path d="M96.6,42c.5.2,1.2.7,1.9,1.5.6.7.9,1.4,1.1,1.9l.8-1.5c-.2-.5-.6-1.1-1.2-1.7-.6-.6-1.1-.9-1.6-1.2-.4.3-.7.7-1,1h0Z" fill="none"/>
    </clipPath>
    <clipPath id="clippath-9">
      <path d="M95.3,42.8c.4.2,1.4.7,2.2,1.8.7,1.1.8,1.9.8,2.4.5-.6,1-1.1,1.5-1.7-.1-.5-.4-1.4-1.2-2.2-.6-.6-1.3-1-1.7-1.1-.5.3-1,.6-1.5.8h0Z" fill="none"/>
    </clipPath>
    <clipPath id="clippath-10">
      <path d="M93.9,43.3c.4.2,1.6.8,2.2,2,.6,1.1.6,2.1.5,2.6.6-.3,1.1-.7,1.6-1,0-.5-.1-1.4-.7-2.5-.6-1-1.4-1.6-1.8-1.8-.6.2-1.3.5-1.9.7Z" fill="none"/>
    </clipPath>
    <clipPath id="clippath-11">
      <path d="M92.1,44.3c.3.1,1.5.5,2.3,1.7.5.9.6,1.7.6,2.1.6,0,1.2-.1,1.7-.2,0-.4.1-1.5-.6-2.8-.7-1.2-1.7-1.7-2.1-1.9-.6.4-1.3.7-1.9,1.1h0Z" fill="none"/>
    </clipPath>
    <clipPath id="clippath-12">
      <path d="M90.9,46.4c0,0,1.1-.4,1.9.3.5.5.6,1.1.6,1.2.2,0,.5-.1.8-.1.3,0,.6,0,.7.1,0-.4,0-1.3-.7-2.2-.8-1.1-2-1.4-2.3-1.5-.4.7-.8,1.4-1.2,2.1h0Z" fill="none"/>
    </clipPath>
    <clipPath id="clippath-13">
      <path d="M90.9,46.3c0,.2-.3.9,0,1.7.3.8.9,1.2,1.1,1.3.1-.2.3-.6.8-1,.3-.2.7-.3.9-.4,0-.2-.1-.9-.7-1.4-.4-.3-.9-.4-1.2-.4s-.8.1-.8.1h0Z" fill="none"/>
    </clipPath>
    <clipPath id="clippath-14">
      <rect x="80.8" y="27" width="25.4" height="25.4" fill="none"/>
    </clipPath>
    <clipPath id="clippath-15">
      <rect x="80.8" y="27" width="25.4" height="25.4" fill="none"/>
    </clipPath>
  </defs>
  <g clip-path="url(#clippath)">
    <g>
      <rect x="1" y="1" width="186" height="157" rx="8" ry="8" fill="#0000c0" opacity=".1"/>
      <path d="M28,33c0-8.8,7.2-16,16-16h100c8.8,0,16,7.2,16,16v125H28V33Z" fill="#fff"/>
      <path d="M43.6,107.2v7.4h3.6v1.4h-5v-8.8h1.4ZM54,113.4h-5c.2,1,1,1.5,2,1.5s1.2-.3,1.6-.8l1.1.7c-.6.9-1.5,1.4-2.7,1.4s-1.8-.3-2.5-.9c-.6-.6-.9-1.4-.9-2.4s.3-1.7.9-2.3c.6-.6,1.4-1,2.4-1s1.7.3,2.2,1c.6.6.9,1.4.9,2.3s0,.3,0,.6ZM49,112.3h3.7c-.2-1-.9-1.5-1.8-1.5s-1.7.6-1.9,1.5ZM58.5,109.8v1.3h-1.5v3c0,.8.5.8,1.5.7v1.2c-2.1.2-2.9-.3-2.9-1.9v-3h-1.1v-1.3h1.1v-1.3l1.4-.4v1.8h1.5ZM60.3,107.2h1.5l-.9,3.2h-1.1l.5-3.2ZM63.4,111.5c0,.4.5.6,1.2.8,1,.2,2.2.6,2.2,1.9,0,.6-.2,1.1-.7,1.4-.5.3-1,.5-1.7.5-1.2,0-2.2-.6-2.6-1.5l1.2-.7c.2.6.7.9,1.4.9s1.1-.2,1.1-.7-.5-.6-1.2-.8c-.9-.2-2.2-.6-2.2-1.9,0-.6.2-1,.7-1.4s1-.5,1.6-.5c1,0,1.9.5,2.3,1.3l-1.1.6c-.2-.5-.6-.7-1.2-.7s-.9.2-.9.7ZM74.1,116.2c-.9,0-1.7-.3-2.4-1-.6-.6-.9-1.4-.9-2.3s.3-1.7.9-2.3c.6-.6,1.4-1,2.4-1s2.3.6,2.8,1.6l-1.2.7c-.3-.6-.9-1-1.6-1s-1,.2-1.4.6c-.4.4-.6.8-.6,1.4s.2,1,.6,1.4c.4.4.8.6,1.4.6s1.4-.4,1.7-1l1.2.7c-.5,1-1.6,1.6-2.8,1.6ZM80.7,116.2c-.9,0-1.7-.3-2.3-1-.6-.6-1-1.4-1-2.3s.3-1.7,1-2.3c.6-.6,1.4-1,2.3-1s1.7.3,2.3,1c.6.6,1,1.4,1,2.3s-.3,1.7-1,2.3c-.6.6-1.4,1-2.3,1ZM79.3,114.3c.4.4.8.6,1.4.6s1-.2,1.4-.6.6-.9.6-1.4-.2-1-.6-1.4-.8-.6-1.4-.6-1,.2-1.4.6-.6.8-.6,1.4.2,1,.6,1.4ZM88.5,109.6c1.4,0,2.4,1,2.4,2.6v3.8h-1.3v-3.7c0-.9-.5-1.5-1.4-1.5s-1.6.6-1.6,1.8v3.3h-1.4v-6.2h1.4v.8c.4-.6,1-1,1.9-1ZM95.6,109.6c1.4,0,2.4,1,2.4,2.6v3.8h-1.4v-3.7c0-.9-.5-1.5-1.4-1.5s-1.6.6-1.6,1.8v3.3h-1.3v-6.2h1.3v.8c.4-.6,1-1,1.9-1ZM105.5,113.4h-5c.2,1,1,1.5,2,1.5s1.2-.3,1.6-.8l1.1.7c-.6.9-1.5,1.4-2.7,1.4s-1.8-.3-2.5-.9c-.6-.6-.9-1.4-.9-2.4s.3-1.7.9-2.3c.6-.6,1.4-1,2.4-1s1.7.3,2.2,1c.6.6.9,1.4.9,2.3s0,.3,0,.6ZM100.6,112.3h3.7c-.2-1-.9-1.5-1.8-1.5s-1.7.6-1.9,1.5ZM109.7,116.2c-.9,0-1.7-.3-2.4-1-.6-.6-.9-1.4-.9-2.3s.3-1.7.9-2.3c.6-.6,1.4-1,2.4-1s2.3.6,2.8,1.6l-1.2.7c-.3-.6-.9-1-1.6-1s-1,.2-1.4.6c-.4.4-.6.8-.6,1.4s.2,1,.6,1.4c.4.4.8.6,1.4.6s1.4-.4,1.7-1l1.2.7c-.5,1-1.6,1.6-2.8,1.6ZM117,109.8v1.3h-1.5v3c0,.8.5.8,1.5.7v1.2c-2.1.2-2.9-.3-2.9-1.9v-3h-1.2v-1.3h1.2v-1.3l1.3-.4v1.8h1.5ZM124,114.3l1.6-4.5h1.4l-2.4,6.4c-.6,1.6-1.6,2.4-3.1,2.3v-1.3c.9,0,1.3-.4,1.7-1.2h0c0-.1-2.7-6.3-2.7-6.3h1.5l1.9,4.5ZM130.6,116.2c-.9,0-1.7-.3-2.3-1s-1-1.4-1-2.3.3-1.7,1-2.3c.6-.6,1.4-1,2.3-1s1.7.3,2.3,1c.6.6,1,1.4,1,2.3s-.3,1.7-1,2.3c-.6.6-1.4,1-2.3,1ZM129.2,114.3c.4.4.8.6,1.4.6s1-.2,1.4-.6.6-.9.6-1.4-.2-1-.6-1.4-.8-.6-1.4-.6-1,.2-1.4.6-.6.8-.6,1.4.2,1,.6,1.4ZM139.3,113.1v-3.3h1.4v6.2h-1.4v-.8c-.4.6-1.1,1-1.9,1-1.4,0-2.4-1-2.4-2.6v-3.8h1.4v3.7c0,.9.5,1.5,1.4,1.5s1.6-.6,1.6-1.8ZM143.6,109.8v1.1c.3-.8,1-1.2,1.9-1.2v1.5c-.5,0-1,0-1.3.4-.4.3-.6.7-.6,1.4v3.2h-1.4v-6.2h1.4ZM58.3,131.1l1.2-4.3h1.4l-2,6.2h-1.3l-1.3-4.2-1.3,4.2h-1.3l-2-6.2h1.4l1.2,4.3,1.3-4.3h1.3l1.3,4.3ZM64.7,133.2c-.9,0-1.7-.3-2.3-1-.6-.6-1-1.4-1-2.3s.3-1.7,1-2.3c.6-.6,1.4-1,2.3-1s1.7.3,2.3,1c.6.6,1,1.4,1,2.3s-.3,1.7-1,2.3c-.6.6-1.4,1-2.3,1ZM63.3,131.3c.4.4.8.6,1.4.6s1-.2,1.4-.6.6-.9.6-1.4-.2-1-.6-1.4-.8-.6-1.4-.6-1,.2-1.4.6-.6.8-.6,1.4.2,1,.6,1.4ZM70.6,126.8v1.1c.3-.8,1-1.2,1.9-1.2v1.5c-.5,0-1,0-1.3.4-.4.3-.6.7-.6,1.4v3.1h-1.3v-6.2h1.3ZM76.2,129.8l2.8,3.2h-1.6l-2.6-2.9v2.9h-1.3v-8.8h1.3v5.3l2.4-2.8h1.7l-2.8,3.1ZM88,127.6v-.9h1.3v6.2h-1.3v-.9c-.5.7-1.2,1.1-2.2,1.1s-1.6-.3-2.2-1c-.6-.6-.9-1.4-.9-2.3s.3-1.7.9-2.3c.6-.6,1.3-1,2.2-1s1.7.3,2.2,1.1ZM84.6,131.3c.4.4.8.6,1.4.6s1-.2,1.4-.6c.4-.4.6-.9.6-1.4s-.2-1.1-.6-1.4c-.4-.4-.8-.6-1.4-.6s-1,.2-1.4.6c-.4.4-.6.9-.6,1.4s.2,1.1.6,1.4ZM93.9,133.2c-.9,0-1.7-.3-2.4-1-.6-.6-.9-1.4-.9-2.3s.3-1.7.9-2.3c.6-.6,1.4-1,2.4-1s2.3.6,2.8,1.6l-1.2.7c-.3-.6-.9-1-1.6-1s-1,.2-1.4.6c-.4.4-.6.8-.6,1.4s.2,1,.6,1.4c.4.4.8.6,1.4.6s1.4-.4,1.7-1l1.2.7c-.5,1-1.6,1.6-2.8,1.6ZM100.5,133.2c-.9,0-1.7-.3-2.4-1-.6-.6-.9-1.4-.9-2.3s.3-1.7.9-2.3c.6-.6,1.4-1,2.4-1s2.3.6,2.8,1.6l-1.2.7c-.3-.6-.9-1-1.6-1s-1,.2-1.4.6c-.4.4-.5.8-.5,1.4s.2,1,.5,1.4c.4.4.8.6,1.4.6s1.4-.4,1.7-1l1.2.7c-.5,1-1.6,1.6-2.8,1.6ZM107.2,133.2c-.9,0-1.7-.3-2.3-1-.6-.6-1-1.4-1-2.3s.3-1.7,1-2.3c.6-.6,1.4-1,2.3-1s1.7.3,2.3,1c.6.6,1,1.4,1,2.3s-.3,1.7-1,2.3c-.6.6-1.4,1-2.3,1ZM105.8,131.3c.4.4.8.6,1.4.6s1-.2,1.4-.6.6-.9.6-1.4-.2-1-.6-1.4-.8-.6-1.4-.6-1,.2-1.4.6-.6.8-.6,1.4.2,1,.6,1.4ZM115.9,130.1v-3.4h1.3v6.2h-1.3v-.8c-.4.6-1.1,1-1.9,1-1.4,0-2.4-1-2.4-2.6v-3.8h1.3v3.7c0,.9.5,1.4,1.4,1.4s1.6-.6,1.6-1.8ZM122.1,126.6c1.4,0,2.4,1,2.4,2.6v3.8h-1.3v-3.7c0-.9-.5-1.5-1.4-1.5s-1.6.6-1.6,1.8v3.4h-1.3v-6.2h1.3v.8c.4-.6,1.1-1,1.9-1ZM129.4,126.8v1.3h-1.5v3c0,.8.5.8,1.5.7v1.2c-2.1.2-2.9-.3-2.9-1.9v-3h-1.1v-1.3h1.1v-1.3l1.4-.4v1.8h1.5ZM131.7,128.5c0,.4.5.6,1.2.8,1,.2,2.2.6,2.2,1.9,0,.6-.2,1.1-.7,1.4-.5.3-1,.5-1.7.5-1.2,0-2.2-.6-2.6-1.5l1.2-.7c.2.6.7.9,1.4.9s1.1-.2,1.1-.7-.5-.6-1.2-.8c-.9-.2-2.2-.6-2.2-1.9,0-.6.2-1,.6-1.4.4-.3,1-.5,1.6-.5,1,0,1.9.5,2.3,1.3l-1.1.6c-.2-.5-.6-.7-1.2-.7s-.9.2-.9.7Z" fill="#141414"/>
      <rect x="28" y="111" width="132" height="47" fill="url(#Dégradé_sans_nom)"/>
      <rect x="53.7" y="31.7" width="13.9" height="15" rx="7" ry="7" fill="#a8afbc" fill-opacity=".1"/>
      <g clip-path="url(#clippath-1)">
        <path d="M61.9,35.8c.2,0,.3.1.3.3v.9h1.2c.2,0,.3.1.3.3v4.4c0,.2-.1.3-.3.3h-5.2c-.2,0-.3-.1-.3-.3v-4.4c0-.2.1-.3.3-.3h1.2v-.9c0-.2.1-.3.3-.3h2.3ZM61.6,36.4h-1.7v.6h1.7v-.6Z" fill="#a8afbc"/>
      </g>
      <path d="M70.8,38.1h0c.6,0,1,.5,1,1v.2c0,.6-.5,1-1,1h0c-.6,0-1-.5-1-1v-.2c0-.6.5-1,1-1Z" fill="#a8afbc" fill-opacity=".1"/>
      <path d="M75,38.1h0c.6,0,1,.5,1,1v.2c0,.6-.5,1-1,1h0c-.6,0-1-.5-1-1v-.2c0-.6.5-1,1-1Z" fill="#a8afbc" fill-opacity=".2"/>
      <path d="M79.2,38.1h0c.6,0,1,.5,1,1v.2c0,.6-.5,1-1,1h0c-.6,0-1-.5-1-1v-.2c0-.6.5-1,1-1Z" fill="#a8afbc" fill-opacity=".3"/>
      <rect x="119.2" y="31.7" width="13.9" height="15" rx="7" ry="7" fill="#8fb571" fill-opacity=".1"/>
      <g clip-path="url(#clippath-2)">
        <path d="M125.5,40.4l3-3.2.5.5-3.4,3.7-2.1-2.2.5-.5,1.6,1.7Z" fill="#8fb571"/>
      </g>
      <path d="M107.7,38.1h0c.6,0,1,.5,1,1v.2c0,.6-.5,1-1,1h0c-.6,0-1-.5-1-1v-.2c0-.6.5-1,1-1Z" fill="#8fb571" fill-opacity=".1"/>
      <path d="M111.9,38.1h0c.6,0,1,.5,1,1v.2c0,.6-.5,1-1,1h0c-.6,0-1-.5-1-1v-.2c0-.6.5-1,1-1Z" fill="#8fb571" fill-opacity=".2"/>
      <path d="M116.1,38.1h0c.6,0,1,.5,1,1v.2c0,.6-.5,1-1,1h0c-.6,0-1-.5-1-1v-.2c0-.6.5-1,1-1Z" fill="#8fb571" fill-opacity=".3"/>
      <rect x="70" y="59" width="104" height="36" rx="4" ry="4" fill="#fff"/>
      <g>
        <path d="M88,63h0c7.7,0,14,6.3,14,14h0c0,7.7-6.3,14-14,14h0c-7.7,0-14-6.3-14-14h0c0-7.7,6.3-14,14-14Z" shape-rendering="crispEdges" fill="none"/>
        <path d="M88,63.5h0c7.5,0,13.5,6,13.5,13.5h0c0,7.5-6,13.5-13.5,13.5h0c-7.5,0-13.5-6-13.5-13.5h0c0-7.5,6-13.5,13.5-13.5Z" shape-rendering="crispEdges" fill="none" stroke="#edf2f8"/>
      </g>
      <path d="M112.2,73.5l-1.3-2.2c.7-.3,1.1-.9,1.1-1.6s-.2-.9-.5-1.3c-.3-.4-.8-.5-1.3-.5h-2.3v5.7h.9v-2.1h1.1l1.2,2.1h1ZM110.2,68.7c.5,0,.9.4.9,1s-.4,1-.9,1h-1.3v-1.9h1.3Z" fill="#141414"/>
      <path d="M114.6,73.6c.6,0,1.1-.2,1.5-.6.4-.4.6-.9.6-1.5s-.2-1.1-.6-1.5c-.4-.4-.9-.6-1.5-.6s-1.1.2-1.5.6-.6.9-.6,1.5.2,1.1.6,1.5c.4.4.9.6,1.5.6ZM113.7,72.4c-.2-.2-.4-.6-.4-.9s.1-.7.4-.9c.2-.2.5-.4.9-.4s.7.1.9.4c.2.2.4.6.4.9s-.1.7-.4.9c-.2.2-.5.4-.9.4s-.7-.1-.9-.4Z" fill="#141414"/>
      <path d="M119.7,69.3c-.6,0-1,.2-1.3.6v-.5h-.9v4.1h.9v-2.2c0-.8.4-1.2,1-1.2s.9.3.9.9v2.4h.9v-2.5c0-1-.6-1.7-1.6-1.7Z" fill="#141414"/>
      <path d="M125.4,70c-.3-.5-.8-.7-1.4-.7s-1,.2-1.4.6c-.4.4-.6.9-.6,1.5s.2,1.1.6,1.5c.4.4.9.6,1.4.6s1.1-.2,1.4-.7v.6h.9v-4.1h-.9v.6ZM123.2,72.4c-.2-.3-.4-.6-.4-.9s.1-.7.4-.9c.2-.3.6-.4.9-.4s.7.1.9.4c.2.2.4.6.4.9s-.1.7-.4.9c-.2.2-.6.4-.9.4s-.7-.1-.9-.4Z" fill="#141414"/>
      <path d="M128.2,73.5v-5.9h-.9v5.9h.9Z" fill="#141414"/>
      <path d="M132.4,70c-.3-.5-.8-.7-1.4-.7s-1,.2-1.4.6c-.4.4-.6.9-.6,1.5s.2,1.1.6,1.5c.4.4.9.6,1.4.6s1.1-.2,1.4-.7v.6h.9v-5.7h-.9v2.2ZM130.2,72.4c-.2-.3-.4-.6-.4-.9s.1-.7.4-.9c.2-.3.6-.4.9-.4s.7.1.9.4c.2.2.4.6.4.9s-.1.7-.4.9c-.2.2-.6.4-.9.4s-.7-.1-.9-.4Z" fill="#141414"/>
      <path d="M140.7,73.5l-1.3-2.2c.7-.3,1.1-.9,1.1-1.6s-.2-.9-.5-1.3c-.3-.4-.8-.5-1.3-.5h-2.3v5.7h.9v-2.1h1.1l1.2,2.1h1ZM138.7,68.7c.5,0,.9.4.9,1s-.4,1-.9,1h-1.3v-1.9h1.3Z" fill="#141414"/>
      <path d="M142.1,68.7c.2-.2.2-.6,0-.8-.2-.2-.6-.2-.8,0-.2.2-.2.6,0,.8.2.2.6.2.8,0ZM142.2,73.5v-4.1h-.9v4.1h.9Z" fill="#141414"/>
      <path d="M145.1,73.6c.8,0,1.5-.4,1.8-1.1l-.8-.4c-.2.4-.6.6-1.1.6s-.7-.1-.9-.4c-.2-.2-.4-.5-.4-.9s.1-.7.4-.9c.2-.2.5-.4.9-.4s.9.2,1.1.6l.8-.4c-.3-.6-1-1-1.8-1s-1.1.2-1.5.6c-.4.4-.6.9-.6,1.5s.2,1.1.6,1.5c.4.4.9.6,1.5.6Z" fill="#141414"/>
      <path d="M149.7,69.3c-.6,0-1,.2-1.3.6v-2.1h-.9v5.7h.9v-2.2c0-.8.4-1.2,1-1.2s.9.3.9.9v2.4h.9v-2.5c0-1-.6-1.7-1.6-1.7Z" fill="#141414"/>
      <path d="M155.4,70c-.3-.5-.8-.7-1.4-.7s-1,.2-1.4.6-.6.9-.6,1.5.2,1.1.6,1.5c.4.4.9.6,1.4.6s1.1-.2,1.4-.7v.6h.9v-4.1h-.9v.6ZM153.2,72.4c-.2-.3-.4-.6-.4-.9s.1-.7.4-.9c.2-.3.6-.4.9-.4s.7.1.9.4c.2.2.4.6.4.9s-.1.7-.4.9c-.2.2-.6.4-.9.4s-.7-.1-.9-.4Z" fill="#141414"/>
      <path d="M158.2,69.4h-.9v4.1h.9v-2c0-.4.1-.7.4-.9.3-.2.5-.3.9-.2v-1c-.6,0-1,.3-1.3.8v-.7Z" fill="#141414"/>
      <path d="M163.1,70c-.3-.5-.8-.7-1.4-.7s-1,.2-1.4.6c-.4.4-.6.9-.6,1.5s.2,1.1.6,1.5c.4.4.9.6,1.4.6s1.1-.2,1.4-.7v.6h.9v-5.7h-.9v2.2ZM160.9,72.4c-.2-.3-.4-.6-.4-.9s.1-.7.4-.9c.2-.3.6-.4.9-.4s.7.1.9.4c.2.2.4.6.4.9s-.1.7-.4.9c-.2.2-.6.4-.9.4s-.7-.1-.9-.4Z" fill="#141414"/>
      <path d="M165.8,70.6c0-.3.3-.4.6-.4s.6.2.8.5l.7-.4c-.3-.5-.8-.8-1.5-.8s-.8.1-1.1.3c-.3.2-.4.5-.4.9,0,.9.8,1.1,1.4,1.3.4.1.8.3.8.5s-.2.5-.7.5-.8-.2-.9-.6l-.8.4c.3.6.9,1,1.7,1s.8-.1,1.1-.3c.3-.2.5-.5.5-.9,0-.9-.8-1.1-1.4-1.3-.4-.1-.8-.3-.8-.5Z" fill="#141414"/>
      <g clip-path="url(#clippath-3)">
        <path d="M111.9,79.1c-1.8,0-3.3,1.5-3.3,3.3s1.5,3.3,3.3,3.3,3.3-1.5,3.3-3.3-1.5-3.3-3.3-3.3ZM107.8,82.4c0-2.3,1.8-4.1,4.1-4.1s4.1,1.8,4.1,4.1-1.8,4.1-4.1,4.1-4.1-1.8-4.1-4.1ZM113.8,81.1c.2.2.2.4,0,.6l-2.2,2.5c0,0-.2.1-.3.1s-.2,0-.3-.1l-1.1-1.2c-.2-.2-.1-.4,0-.6.2-.2.4-.1.6,0l.8.9,1.9-2.1c.2-.2.4-.2.6,0Z" fill="#8fb571"/>
      </g>
      <path d="M123.2,84.8l1.6-4.7h-1l-1.1,3.6-1.2-3.6h-1l1.6,4.7h1.2Z" fill="#8fb571"/>
      <path d="M128,83.4c0-.1,0-.2,0-.4,0-.5-.2-.9-.5-1.3-.3-.3-.7-.5-1.2-.5s-1,.2-1.3.5c-.3.3-.5.8-.5,1.3s.2.9.5,1.3.8.5,1.3.5,1.1-.2,1.5-.7l-.7-.4c-.2.2-.4.3-.8.3-.5,0-.8-.2-.9-.6h2.5ZM125.5,82.8c.1-.4.4-.7.9-.7s.7.2.8.7h-1.7Z" fill="#8fb571"/>
      <path d="M129.5,81.4h-.9v3.4h.9v-1.6c0-.3.1-.6.3-.7.2-.1.5-.2.7-.2v-1c-.5,0-.9.2-1,.6v-.6Z" fill="#8fb571"/>
      <path d="M131.5,81c.3,0,.5-.2.5-.5s-.2-.5-.5-.5-.5.2-.5.5.2.5.5.5ZM131.9,84.8v-3.4h-.9v3.4h.9Z" fill="#8fb571"/>
      <path d="M133.8,81.4h0c0-.5.2-.6.7-.6s.5,0,.8,0v-.8c-.3,0-.6,0-.8,0-1.1,0-1.6.5-1.6,1.4h0s-.5,0-.5,0v.8h.5v2.5h.9v-2.5h1v2.5h.9v-3.4h-1.9Z" fill="#8fb571"/>
      <path d="M139.8,83.4c0-.1,0-.2,0-.4,0-.5-.2-.9-.5-1.3-.3-.3-.7-.5-1.2-.5s-.9.2-1.3.5c-.3.3-.5.8-.5,1.3s.2.9.5,1.3c.3.3.8.5,1.3.5s1.1-.2,1.5-.7l-.7-.4c-.2.2-.4.3-.8.3-.5,0-.8-.2-.9-.6h2.5ZM137.2,82.8c.1-.4.4-.7.9-.7s.7.2.8.7h-1.7Z" fill="#8fb571"/>
      <path d="M142.9,81.8c-.3-.3-.6-.5-1.1-.5s-.8.2-1.2.5c-.3.3-.5.8-.5,1.3s.2.9.5,1.3c.3.3.7.5,1.2.5s.8-.2,1.1-.5v.4h.9v-4.7h-.9v1.7ZM141.3,83.8c-.2-.2-.3-.4-.3-.7s0-.5.3-.7c.2-.2.4-.3.7-.3s.5,0,.7.3c.2.2.3.4.3.7s0,.5-.3.7c-.2.2-.4.3-.7.3s-.5,0-.7-.3Z" fill="#8fb571"/>
      <g>
        <g clip-path="url(#clippath-4)">
          <rect x="82.1" y="27.6" width="23.1" height="23.1" transform="translate(-.3 77.7) rotate(-45)" fill="#bc322e"/>
        </g>
        <g clip-path="url(#clippath-5)">
          <rect x="86.4" y="31.5" width="14" height="11.6" transform="translate(-5.1 16.8) rotate(-10)" fill="#bc322e"/>
        </g>
        <polygon points="92.1 42.7 92.4 42.5 93.1 43.2 92.8 43.5 92.1 42.7" fill="#fb9c24"/>
        <g clip-path="url(#clippath-6)">
          <g>
            <path d="M92.2,42.6l.7.8-.6.4-.6-.9.4-.3h0Z" fill="#fe5126"/>
            <polygon points="91.5 43.1 91.9 44.1 92.3 43.8 91.8 42.9 91.5 43.1" fill="#bf000e"/>
          </g>
        </g>
        <g>
          <path d="M97.7,41.3c.4.3.9.6,1.3,1.1.4.4.7.8,1,1.2.1-.4.2-1.1,0-2.1s-.7-1.5-1-1.8c-.4.5-.9,1.1-1.3,1.6" fill="#bc322e"/>
          <g clip-path="url(#clippath-7)">
            <rect x="96.9" y="39.3" width="4.2" height="4.6" transform="translate(-7.6 55.1) rotate(-30)" fill="#bc322e"/>
          </g>
        </g>
        <g>
          <path d="M96.6,42c.5.2,1.2.7,1.9,1.5.6.7.9,1.4,1.1,1.9l.8-1.5c-.2-.5-.6-1.1-1.2-1.7-.6-.6-1.1-.9-1.6-1.2-.4.3-.7.7-1,1" fill="#e3791c"/>
          <g clip-path="url(#clippath-8)">
            <rect x="95.7" y="40.3" width="5.7" height="5.8" transform="translate(-7.3 62.8) rotate(-34.2)" fill="#e3791c"/>
          </g>
        </g>
        <g>
          <path d="M95.3,42.8c.4.2,1.4.7,2.2,1.8.7,1.1.8,1.9.8,2.4.5-.6,1-1.1,1.5-1.7-.1-.5-.4-1.4-1.2-2.2-.6-.6-1.3-1-1.7-1.1-.5.3-1,.6-1.5.8" fill="#bc322e"/>
          <g clip-path="url(#clippath-9)">
            <rect x="94.4" y="41.2" width="6.3" height="6.6" transform="translate(-9.2 54.7) rotate(-30)" fill="#bc322e"/>
          </g>
        </g>
        <g clip-path="url(#clippath-10)">
          <rect x="92.8" y="41.9" width="6.5" height="6.8" transform="translate(-9.8 54.1) rotate(-30)" fill="#e3791c"/>
        </g>
        <g>
          <path d="M92.1,44.3c.3.1,1.5.5,2.3,1.7.5.9.6,1.7.6,2.1.6,0,1.2-.1,1.7-.2,0-.4.1-1.5-.6-2.8-.7-1.2-1.7-1.7-2.1-1.9-.6.4-1.3.7-1.9,1.1" fill="#bc322e"/>
          <g clip-path="url(#clippath-11)">
            <rect x="91.2" y="42.4" width="6.5" height="6.6" transform="translate(-10.2 53.3) rotate(-30)" fill="#bc322e"/>
          </g>
        </g>
        <g>
          <path d="M90.9,46.4c0,0,1.1-.4,1.9.3.5.5.6,1.1.6,1.2.2,0,.5-.1.8-.1.3,0,.6,0,.7.1,0-.4,0-1.3-.7-2.2-.8-1.1-2-1.4-2.3-1.5-.4.7-.8,1.4-1.2,2.1" fill="#e3791c"/>
          <g clip-path="url(#clippath-12)">
            <rect x="90.2" y="43.4" width="5.5" height="5.5" transform="translate(-5.4 79.2) rotate(-45)" fill="#e3791c"/>
          </g>
        </g>
        <g>
          <path d="M90.9,46.3c0,.2-.3.9,0,1.7s.9,1.2,1.1,1.3c.1-.2.3-.6.8-1,.3-.2.7-.3.9-.4,0-.2-.1-.9-.7-1.4-.4-.3-.9-.4-1.2-.4s-.8.1-.8.1" fill="#bc322e"/>
          <g clip-path="url(#clippath-13)">
            <rect x="90" y="45.6" width="4.3" height="4.3" transform="translate(-11.5 52.5) rotate(-30)" fill="#bc322e"/>
          </g>
        </g>
        <g clip-path="url(#clippath-14)">
          <g>
            <path d="M91.2,41.9c-.3-.2-1-.6-1.4-1.4-.2-.3-.4-.9-.4-1.6.1-1,.9-1.6,1-1.7l-.2-.5c-.2,0-.4,0-.7.1-.7.3-1.1,1.2-1.1,1.8-.1,1.2.7,2.1.9,2.3.7.8,1.6.9,1.9,1" fill="#fff"/>
            <path d="M94.9,41.9c.4-.2,1.1-.6,1.6-1.4.2-.3.5-.9.4-1.6-.1-1-1-1.6-1.1-1.7,0-.2.2-.3.2-.5.2,0,.5,0,.8.1.8.3,1.2,1.2,1.2,1.8.2,1.2-.8,2.1-1,2.3-.8.8-1.8.9-2.1,1" fill="#fff"/>
            <path d="M94.7,40.8c.7-.8.5-1.8.2-2.5-.3-.6-.7-.9-.9-1-.3-.2-.7-.5-1.2-.5-.7,0-1.2.6-1.5.9-.2.2-.5.6-.6,1.1-.2.8.3,1.5.3,1.6.6.9,1.7,1,1.9,1s1.1,0,1.8-.7" fill="#fff"/>
          </g>
        </g>
        <g clip-path="url(#clippath-15)">
          <g>
            <polygon points="95.3 32.7 96.6 31.4 98.8 31 99.6 32.2 99.5 34 98.3 35.8 97.5 34.2 96.1 33 95.3 32.7" fill="#fff"/>
            <polygon points="91.6 32.7 90.3 31.4 88.1 31 87.3 32.2 87.4 34 88.6 35.8 89.5 34.2 90.8 33 91.6 32.7" fill="#fff"/>
            <path d="M97.9,34.8c.8-.7.8-1.8.3-2.3-.5-.4-1.3-.4-2,.3.6.7,1.1,1.3,1.7,2" fill="#121a25"/>
            <path d="M88.9,34.8c-.8-.7-.8-1.8-.3-2.3.5-.4,1.3-.4,2,.3-.6.7-1.1,1.3-1.7,2" fill="#121a25"/>
            <path d="M88.6,35.8c-.3-.2-.8-.7-1.1-1.6-.3-.9-.4-2.4.3-2.9.8-.6,2.5-.3,3.8,1.3" fill="none" stroke="#000" stroke-miterlimit="10" stroke-width=".8"/>
            <path d="M98.4,35.7c.3-.2.7-.6,1-1.4.3-.9.4-2.3-.3-2.9-.8-.6-2.4-.3-3.5,1.2" fill="none" stroke="#000" stroke-miterlimit="10" stroke-width=".8"/>
            <path d="M92.3,44.4c-.2.2-.5.5-.7.9-.1.2-.4.6-.5,1.1-.1.4-.3,1.2,0,1.9.2.5.6.8.7.8,0,0-.4-.6-.5-1.3-.1-.8,0-1.8.7-2.4.5-.4,1.5-.4,1.2-.6-.1,0-.5-.3-.8-.4" fill="#fff"/>
            <path d="M99.1,39.6c.3.3,1.4,1.7,1.1,3.9-.3,2.7-3,4.8-4.9,4.7-.6,0-1.2-.3-1.9,0-.7.3-1.1.8-1.4,1.3-.2,0-.3,0-.4-.2-.9-.5-1.1-2.2-.7-3.4.4-1,1.1-1.5,1.5-1.9,1.4-1.1,2.3-1.1,3.6-1.7.8-.4,2-.9,3.1-2.7h0Z" fill="none" stroke="#000" stroke-miterlimit="10" stroke-width=".8"/>
            <line x1="90.3" y1="41.5" x2="91" y2="45.8" fill="none" stroke="#000" stroke-miterlimit="10" stroke-width=".8"/>
            <polyline points="90.6 44 92.4 42.4 93.5 43.5" fill="none" stroke="#000" stroke-miterlimit="10" stroke-width=".2"/>
            <line x1="91.5" y1="43.2" x2="92.1" y2="44.2" fill="none" stroke="#000" stroke-miterlimit="10" stroke-width=".2"/>
            <path d="M95.6,36.7c0,.4-.3.8-.8.8s-.5,0-.7-.2c-.2-.1-.1-.4-.1-.6,0-.4.3-.8.8-.8s.8.3.8.8" fill="#121a25"/>
            <path d="M90.2,36.7c0,.4.3.8.8.8s.5,0,.7-.2c.2-.1.1-.4.1-.6,0-.4-.3-.8-.8-.8s-.8.3-.8.8" fill="#121a25"/>
            <path d="M95.1,36.7c0,.2-.1.3-.3.3s-.3-.1-.3-.3.1-.3.3-.3.3.1.3.3" fill="#fff"/>
            <path d="M91.3,36.7c0,.2-.1.3-.3.3s-.3-.1-.3-.3.1-.3.3-.3.3.1.3.3" fill="#fff"/>
            <path d="M92,36.1c0-.1.2-.6,0-1-.3-.4-1.2-.6-2,0,.1,0,.6,0,1.2.3.5.3.8.5.9.7" fill="#fff"/>
            <path d="M93.7,36.1c0-.1-.2-.6,0-1,.3-.4,1.2-.6,2,0-.1,0-.6,0-1.2.3-.5.3-.8.5-.9.7" fill="#fff"/>
            <path d="M91.2,39.4c0,0,.3.5.6.5,0,0,.2,0,.3,0,.1,0,.2-.2.2-.3s0-.2-.1-.2c-.2,0-.3-.2-.4-.3-.2-.2-.2-.3-.3-.5,0-.2.1-.4.2-.5.3-.4,1-.4,1.4-.1,0,0,.4.3.3.6,0,.3-.4.6-.6.7,0,0-.1,0-.1,0,0,.1.1.3.2.4.3.2.8.1,1.1-.1.1-.1.2-.3.3-.3,0,0,.1,0,.2,0s.2,0,.2.1c0,.1-.2.5-.6.7-.4.2-1,.2-1.4-.1-.3.3-.7.4-1.1.3-.5-.2-.6-.7-.6-.7,0,0,0-.1,0-.2,0,0,.1,0,.1-.1" fill="#121a25"/>
            <path d="M87.2,37.6c.8,2.7,3.2,4.5,5.9,4.7,3,.2,5.7-1.7,6.7-4.7-.2-.2-.4-.5-.7-.9-1-1.3-1.2-2.2-1.6-2.7-1.3-2-6.3-2.1-7.8-.3-.5.6-.5,1.4-1.5,2.8-.4.5-.7.8-.9,1h0Z" fill="none" stroke="#000" stroke-miterlimit="10" stroke-width=".8"/>
          </g>
        </g>
      </g>
    </g>
  </g>
  <rect x=".5" y=".5" width="187" height="158" rx="8.5" ry="8.5" fill="none" stroke="#edf2f8"/>
</svg>