<?xml version="1.0" encoding="UTF-8"?>
<svg id="Calque_1" xmlns="http://www.w3.org/2000/svg" version="1.1" xmlns:xlink="http://www.w3.org/1999/xlink" viewBox="0 0 188 159">
  <!-- Generator: Adobe Illustrator 29.8.2, SVG Export Plug-In . SVG Version: 2.1.1 Build 3)  -->
  <defs>
    <clipPath id="clippath">
      <rect x="1" y="1" width="186" height="157" fill="none"/>
    </clipPath>
    <linearGradient id="Dégradé_sans_nom_27" data-name="Dégradé sans nom 27" x1="85.7" y1="148.5" x2="104.8" y2="68.2" gradientTransform="translate(0 160) scale(1 -1)" gradientUnits="userSpaceOnUse">
      <stop offset="0" stop-color="#0061ff" stop-opacity="0"/>
      <stop offset=".4" stop-color="#0f6cff"/>
      <stop offset=".8" stop-color="#5a9cfd"/>
      <stop offset="1" stop-color="#0061ff" stop-opacity="0"/>
    </linearGradient>
    <linearGradient id="Dégradé_sans_nom_2" data-name="Dégradé sans nom 2" x1="42" y1="39.1" x2="79.4" y2="50.5" gradientTransform="translate(0 160) scale(1 -1)" gradientUnits="userSpaceOnUse">
      <stop offset="0" stop-color="#6db2ff" stop-opacity="0"/>
      <stop offset="1" stop-color="#70b4ff"/>
    </linearGradient>
    <linearGradient id="Dégradé_sans_nom_3" data-name="Dégradé sans nom 3" x1="-2.6" y1="23.2" x2="29" y2="49.7" gradientTransform="translate(0 160) scale(1 -1)" gradientUnits="userSpaceOnUse">
      <stop offset="0" stop-color="#b9ebff" stop-opacity="0"/>
      <stop offset="1" stop-color="#59a3ff"/>
    </linearGradient>
    <linearGradient id="Dégradé_sans_nom_4" data-name="Dégradé sans nom 4" x1="2.5" y1="73.7" x2="13" y2="95.1" gradientTransform="translate(0 160) scale(1 -1)" gradientUnits="userSpaceOnUse">
      <stop offset="0" stop-color="#b9ebff" stop-opacity="0"/>
      <stop offset="1" stop-color="#5ba5ff"/>
    </linearGradient>
    <linearGradient id="Dégradé_sans_nom_5" data-name="Dégradé sans nom 5" x1="26.5" y1="101.2" x2="25.4" y2="85.3" gradientTransform="translate(0 160) scale(1 -1)" gradientUnits="userSpaceOnUse">
      <stop offset="0" stop-color="#5ba5ff" stop-opacity="0"/>
      <stop offset="1" stop-color="#5aa4ff"/>
    </linearGradient>
    <linearGradient id="Dégradé_sans_nom_6" data-name="Dégradé sans nom 6" x1="139.4" y1="8.5" x2="134.9" y2="42.9" gradientTransform="translate(0 160) scale(1 -1)" gradientUnits="userSpaceOnUse">
      <stop offset="0" stop-color="#4a99ff" stop-opacity="0"/>
      <stop offset="1" stop-color="#4a99ff"/>
    </linearGradient>
    <linearGradient id="Dégradé_sans_nom_7" data-name="Dégradé sans nom 7" x1="127" y1="19.4" x2="146.5" y2="83.6" gradientTransform="translate(0 160) scale(1 -1)" gradientUnits="userSpaceOnUse">
      <stop offset=".6" stop-color="#4796ff"/>
      <stop offset="1" stop-color="#0061ff" stop-opacity="0"/>
    </linearGradient>
    <linearGradient id="Dégradé_sans_nom_8" data-name="Dégradé sans nom 8" x1="102.6" y1="130.9" x2="78.9" y2="158.2" gradientTransform="translate(0 160) scale(1 -1)" gradientUnits="userSpaceOnUse">
      <stop offset="0" stop-color="#5899ff"/>
      <stop offset="1" stop-color="#a8dfff" stop-opacity="0"/>
    </linearGradient>
    <linearGradient id="Dégradé_sans_nom_9" data-name="Dégradé sans nom 9" x1="161.5" y1="78.6" x2="181.7" y2="39" gradientTransform="translate(0 160) scale(1 -1)" gradientUnits="userSpaceOnUse">
      <stop offset="0" stop-color="#87b7ff"/>
      <stop offset="1" stop-color="#a8dfff" stop-opacity="0"/>
    </linearGradient>
    <linearGradient id="Dégradé_sans_nom_10" data-name="Dégradé sans nom 10" x1="19.5" y1="161.6" x2="32.9" y2="121.3" gradientTransform="translate(0 160) scale(1 -1)" gradientUnits="userSpaceOnUse">
      <stop offset="0" stop-color="#b9ebff" stop-opacity="0"/>
      <stop offset="1" stop-color="#acc9fe"/>
    </linearGradient>
    <linearGradient id="Dégradé_sans_nom_11" data-name="Dégradé sans nom 11" x1="113" y1="-2.4" x2="100.3" y2="34.9" gradientTransform="translate(0 160) scale(1 -1)" gradientUnits="userSpaceOnUse">
      <stop offset="0" stop-color="#b9ebff" stop-opacity="0"/>
      <stop offset="1" stop-color="#4998ff"/>
    </linearGradient>
    <linearGradient id="Dégradé_sans_nom_12" data-name="Dégradé sans nom 12" x1="166.3" y1="86.1" x2="126.3" y2="159.5" gradientTransform="translate(0 160) scale(1 -1)" gradientUnits="userSpaceOnUse">
      <stop offset="0" stop-color="#0a69ff"/>
      <stop offset="1" stop-color="#a8dfff" stop-opacity="0"/>
    </linearGradient>
    <linearGradient id="Dégradé_sans_nom_13" data-name="Dégradé sans nom 13" x1="181.1" y1="151.8" x2="157.8" y2="117" gradientTransform="translate(0 160) scale(1 -1)" gradientUnits="userSpaceOnUse">
      <stop offset="0" stop-color="#81b5fc" stop-opacity="0"/>
      <stop offset="1" stop-color="#8bf"/>
    </linearGradient>
    <mask id="mask" x="15" y="97" width="29" height="29" maskUnits="userSpaceOnUse">
      <g id="path-15-outside-1_5744_44302">
        <rect x="15" y="97" width="29" height="29" fill="#fff"/>
        <path d="M16,111c0-7.2,5.8-13,13-13s13,5.8,13,13-5.8,13-13,13-13-5.8-13-13Z"/>
      </g>
    </mask>
    <mask id="mask-1" x="54.9" y="17.5" width="29" height="29" maskUnits="userSpaceOnUse">
      <g id="path-19-outside-2_5744_44302">
        <rect x="54.9" y="17.5" width="29" height="29" fill="#fff"/>
        <path d="M55.9,31.5c0-7.2,5.8-13,13-13s13,5.8,13,13-5.8,13-13,13-13-5.8-13-13Z"/>
      </g>
    </mask>
    <mask id="mask-2" x="54.6" y="62.1" width="29" height="29" maskUnits="userSpaceOnUse">
      <g id="path-24-outside-3_5744_44302">
        <rect x="54.6" y="62.1" width="29" height="29" fill="#fff"/>
        <path d="M55.6,76.1c0-7.2,5.8-13,13-13s13,5.8,13,13-5.8,13-13,13-13-5.8-13-13Z"/>
      </g>
    </mask>
    <mask id="mask-3" x="126" y="121" width="29" height="29" maskUnits="userSpaceOnUse">
      <g id="path-28-outside-4_5744_44302">
        <rect x="126" y="121" width="29" height="29" fill="#fff"/>
        <path d="M127,135c0-7.2,5.8-13,13-13s13,5.8,13,13-5.8,13-13,13-13-5.8-13-13Z"/>
      </g>
    </mask>
    <mask id="mask-4" x="104.4" y="31.8" width="29" height="29" maskUnits="userSpaceOnUse">
      <g id="path-32-outside-5_5744_44302">
        <rect x="104.4" y="31.8" width="29" height="29" fill="#fff"/>
        <path d="M105.4,45.8c0-7.2,5.8-13,13-13s13,5.8,13,13-5.8,13-13,13-13-5.8-13-13Z"/>
      </g>
    </mask>
    <mask id="mask-5" x="11" y="39.6" width="29" height="29" maskUnits="userSpaceOnUse">
      <g id="path-35-outside-6_5744_44302">
        <rect x="11" y="39.6" width="29" height="29" fill="#fff"/>
        <path d="M12,53.6c0-7.2,5.8-13,13-13s13,5.8,13,13-5.8,13-13,13-13-5.8-13-13Z"/>
      </g>
    </mask>
    <mask id="mask-6" x="145.3" y="56.2" width="29" height="29" maskUnits="userSpaceOnUse">
      <g id="path-46-outside-7_5744_44302">
        <rect x="145.3" y="56.2" width="29" height="29" fill="#fff"/>
        <path d="M146.3,70.2c0-7.2,5.8-13,13-13s13,5.8,13,13-5.8,13-13,13-13-5.8-13-13Z"/>
      </g>
    </mask>
    <linearGradient id="Dégradé_sans_nom_15" data-name="Dégradé sans nom 15" x1="81" y1="12.7" x2="83.6" y2="13.1" gradientTransform="translate(0 160) scale(1 -1)" gradientUnits="userSpaceOnUse">
      <stop offset="0" stop-color="#fff" stop-opacity="0"/>
      <stop offset="1" stop-color="#57a0fe"/>
    </linearGradient>
    <mask id="mask-7" x="68.9" y="109.6" width="29" height="29" maskUnits="userSpaceOnUse">
      <g id="path-51-outside-8_5744_44302">
        <rect x="68.9" y="109.6" width="29" height="29" fill="#fff"/>
        <path d="M69.9,123.6c0-7.2,5.8-13,13-13s13,5.8,13,13-5.8,13-13,13-13-5.8-13-13Z"/>
      </g>
    </mask>
    <clipPath id="clippath-1">
      <path d="M29,105l-5.6,3.1v6.2s5.5,3.1,5.5,3.1l5.6-3.1v-6.2s-5.5-3.1-5.5-3.1ZM33.9,113.9l-4.9,2.7-4.9-2.8v-5.5s5-2.7,5-2.7l4.9,2.8v5.5s0,0,0,0Z" fill="none"/>
    </clipPath>
    <clipPath id="clippath-2">
      <polygon points="28.4 106.4 30.7 106.7 31.7 107.5 33 109.8 33.3 110.1 32.3 112 30 113.3 27.2 113.2 25.2 111.7 24.3 110 25.3 108.8 26.2 107.3 27.5 106.5 28.4 106.4" fill="none"/>
    </clipPath>
    <clipPath id="clippath-3">
      <rect x="19.7" y="102.4" width="18.3" height="18.3" fill="none"/>
    </clipPath>
    <clipPath id="clippath-4">
      <path d="M32,112.7c.3.2.6.4,1,.8.3.3.5.6.7.9,0-.3.2-.8,0-1.5-.2-.7-.5-1.1-.7-1.3-.3.4-.6.8-.9,1.2h0Z" fill="none"/>
    </clipPath>
    <clipPath id="clippath-5">
      <path d="M31.1,113.2c.3.2.9.5,1.4,1.1.4.5.7,1,.8,1.4l.6-1.1c-.1-.3-.4-.8-.9-1.2-.4-.4-.8-.7-1.1-.8-.3.2-.5.5-.7.7h0Z" fill="none"/>
    </clipPath>
    <clipPath id="clippath-6">
      <path d="M30.2,113.8c.3.1,1,.5,1.6,1.3.5.8.5,1.4.6,1.7.3-.5.7-.8,1.1-1.2,0-.3-.3-1-.9-1.6-.4-.5-.9-.7-1.2-.8-.4.2-.7.4-1.1.6h0Z" fill="none"/>
    </clipPath>
    <clipPath id="clippath-7">
      <path d="M29.2,114.2c.3.1,1.1.5,1.6,1.4.4.8.4,1.5.4,1.8.4-.2.8-.5,1.2-.7,0-.3,0-1-.5-1.8-.4-.7-1-1.1-1.3-1.3-.4.2-.9.4-1.4.5Z" fill="none"/>
    </clipPath>
    <clipPath id="clippath-8">
      <path d="M27.9,114.9c.2,0,1.1.4,1.6,1.2.4.6.4,1.2.4,1.5.4,0,.8,0,1.3-.1,0-.3,0-1.1-.4-2-.5-.9-1.3-1.3-1.5-1.4-.5.3-.9.5-1.4.8h0Z" fill="none"/>
    </clipPath>
    <clipPath id="clippath-9">
      <path d="M27,116.4s.8-.3,1.4.2c.4.3.5.8.5.9.1,0,.3,0,.6,0,.2,0,.4,0,.5,0,0-.3,0-.9-.5-1.6-.6-.8-1.4-1-1.6-1.1-.3.5-.6,1-.9,1.5h0Z" fill="none"/>
    </clipPath>
    <clipPath id="clippath-10">
      <path d="M27,116.3c0,.1-.2.6,0,1.2.2.6.7.9.8,1,0-.1.2-.5.6-.7.2-.2.5-.2.6-.3,0-.1,0-.6-.5-1-.3-.2-.6-.3-.9-.3s-.5,0-.6,0h0Z" fill="none"/>
    </clipPath>
    <clipPath id="clippath-11">
      <rect x="19.7" y="102.4" width="18.3" height="18.3" fill="none"/>
    </clipPath>
    <clipPath id="clippath-12">
      <rect x="19.7" y="102.4" width="18.3" height="18.3" fill="none"/>
    </clipPath>
  </defs>
  <g id="FOND">
    <g clip-path="url(#clippath)">
      <g>
        <path d="M-.7,31.5h101.7c11.2,0,20.3,9.1,20.3,20.3s8.5,19,19,19h51.1v1.3h-51.1c-11.2,0-20.3-9.1-20.3-20.3s-8.5-19-19-19H-.7v-1.3Z" fill="url(#Dégradé_sans_nom_27)" fill-rule="evenodd"/>
        <path d="M54,159.4v-29.2c0-6.2,2.8-11.8,7.3-14.5,4.1-2.5,6.7-7.6,6.7-13.3v-31.9h1v31.9c0,6.2-2.8,11.8-7.3,14.5-4.1,2.5-6.7,7.6-6.7,13.3v29.2h-1Z" fill="url(#Dégradé_sans_nom_2)" fill-rule="evenodd"/>
        <path d="M18.5,159.4v-24.9c0-15,10.5-27.9,25.2-31.2,14.1-3.1,24.2-15.6,24.2-29.9v-32.8c0-5,4.1-9.1,9.2-9.1v1.3c-4.4,0-7.9,3.5-7.9,7.9v32.8c0,15-10.5,27.9-25.2,31.2-14.1,3.1-24.2,15.6-24.2,29.9v24.9h-1.3Z" fill="url(#Dégradé_sans_nom_3)" fill-rule="evenodd"/>
        <path d="M38.4,75.8h-18.7c-8.3,0-15.6,5-17.8,12.2-2,6.6-8.7,11.2-16.4,11.2h-20.7v1.3H-14.5c8.3,0,15.6-5,17.8-12.2,2-6.6,8.7-11.2,16.4-11.2h18.7v-1.3Z" fill="url(#Dégradé_sans_nom_4)" fill-rule="evenodd"/>
        <path d="M-16,56.2H12.2c5.6,0,10.7,3.9,13.3,10.1,2.4,5.8,7.1,9.4,12.3,9.4h18.5c6.5,0,11.7-6.6,11.7-14.6h1c0,8.8-5.7,16-12.7,16h-18.5c-5.6,0-10.7-3.9-13.3-10.1-2.4-5.8-7.1-9.4-12.3-9.4h-28.2v-1.3Z" fill="url(#Dégradé_sans_nom_5)" fill-rule="evenodd"/>
        <path d="M83,124h36.3c7,0,13.5,3.9,16.8,10.1,3.1,5.8,9.1,9.4,15.6,9.4h39.7v1.3h-39.7c-7,0-13.5-3.9-16.8-10.1-3.1-5.8-9.1-9.4-15.6-9.4h-36.3v-1.3Z" fill="url(#Dégradé_sans_nom_6)" fill-rule="evenodd"/>
        <path d="M83.3,134.9v-4.2c0-13.9,11.2-25.1,25.1-25.1h2.8c6.2,0,12.1-2.8,16-7.6,3.7-4.5,9.2-7.1,15-7.1h49.2v-1.3h-49.2c-6.2,0-12.1,2.8-16,7.6-3.7,4.5-9.2,7.1-15,7.1h-2.8c-14.6,0-26.4,11.8-26.4,26.4v2.9l1.3,1.3Z" fill="url(#Dégradé_sans_nom_7)" fill-rule="evenodd"/>
        <path d="M83.3,5.5V-3h-1.3V5.5c0,3.5,2.9,6.3,6.5,6.3s5.2,2.3,5.2,5.1v9.4c0,3.6,3,6.5,6.6,6.5v-1.3c-2.9,0-5.3-2.3-5.3-5.2v-9.4c0-3.5-2.9-6.3-6.5-6.3s-5.2-2.3-5.2-5.1Z" fill="url(#Dégradé_sans_nom_8)" fill-rule="evenodd"/>
        <path d="M205.7,133.1v-7.8c0-5.6-4.6-10.2-10.3-10.2h-18.3c-6.8,0-12.3-5.5-12.3-12.2s-6.1-13.5-13.6-13.5h-8.1v1.3h8.1c6.8,0,12.3,5.5,12.3,12.2s6.1,13.5,13.6,13.5h18.3c5,0,9,4,9,8.9v7.8h1.3Z" fill="url(#Dégradé_sans_nom_9)" fill-rule="evenodd"/>
        <path d="M-1.4-3h15.9c10.1,0,18.2,8,18.2,17.9s7.6,16.6,16.9,16.6h1.7v1.3h-1.7c-10.1,0-18.2-8-18.2-17.9S23.9-1.7,14.6-1.7H-1.4v-1.3Z" fill="url(#Dégradé_sans_nom_10)" fill-rule="evenodd"/>
        <path d="M83,124h10.8c11.1,0,20,9,20,20v2c0,9.2,7.5,16.7,16.7,16.7v1.3c-9.9,0-18-8-18-18v-2c0-10.3-8.4-18.7-18.7-18.7h-10.8v-1.3Z" fill="url(#Dégradé_sans_nom_11)" fill-rule="evenodd"/>
        <path d="M158.9,62c0,5.6,4.6,10.2,10.2,10.2v-1.3c-4.9,0-8.9-4-8.9-8.9v-11.3c0-7.8-6.3-14.1-14.1-14.1s-12.8-5.7-12.8-12.8V-3h-1.3v26.8c0,7.8,6.3,14.1,14.1,14.1s12.8,5.7,12.8,12.8v11.3Z" fill="url(#Dégradé_sans_nom_12)" fill-rule="evenodd"/>
        <path d="M156.7,42.6v-8.5c0-4.2,3.5-7.6,7.7-7.6h0c4.2,0,7.6-3.4,7.6-7.6h0c0-4.2,3.4-7.6,7.6-7.6h8.4" fill="none" stroke="url(#Dégradé_sans_nom_13)" stroke-width="1.3"/>
        <path d="M16,111c0-7.2,5.8-13,13-13s13,5.8,13,13-5.8,13-13,13-13-5.8-13-13Z" fill="#fff"/>
        <g mask="url(#mask)">
          <path d="M29,123c-6.6,0-12-5.4-12-12h-2c0,7.7,6.3,14,14,14v-2ZM41,111c0,6.6-5.4,12-12,12v2c7.7,0,14-6.3,14-14h-2ZM29,99c6.6,0,12,5.4,12,12h2c0-7.7-6.3-14-14-14v2ZM29,97c-7.7,0-14,6.3-14,14h2c0-6.6,5.4-12,12-12v-2Z" fill="#5aa4ff"/>
        </g>
        <path d="M55.9,31.5c0-7.2,5.8-13,13-13s13,5.8,13,13-5.8,13-13,13-13-5.8-13-13Z" fill="#fff"/>
        <g mask="url(#mask-1)">
          <path d="M69,43.5c-6.6,0-12-5.4-12-12h-2c0,7.7,6.3,14,14,14v-2ZM81,31.5c0,6.6-5.4,12-12,12v2c7.7,0,14-6.3,14-14h-2ZM69,19.5c6.6,0,12,5.4,12,12h2c0-7.7-6.3-14-14-14v2ZM69,17.5c-7.7,0-14,6.3-14,14h2c0-6.6,5.4-12,12-12v-2Z" fill="#519dff"/>
        </g>
        <path d="M55.6,76.1c0-7.2,5.8-13,13-13s13,5.8,13,13-5.8,13-13,13-13-5.8-13-13Z" fill="#fff"/>
        <g mask="url(#mask-2)">
          <path d="M68.6,88.1c-6.6,0-12-5.4-12-12h-2c0,7.7,6.3,14,14,14v-2ZM80.7,76.1c0,6.6-5.4,12-12,12v2c7.7,0,14-6.3,14-14h-2ZM68.6,64.1c6.6,0,12,5.4,12,12h2c0-7.7-6.3-14-14-14v2ZM68.6,62.1c-7.7,0-14,6.3-14,14h2c0-6.6,5.4-12,12-12v-2Z" fill="#5aa4ff"/>
        </g>
        <path d="M127,135c0-7.2,5.8-13,13-13s13,5.8,13,13-5.8,13-13,13-13-5.8-13-13Z" fill="#fff"/>
        <g mask="url(#mask-3)">
          <path d="M140,147c-6.6,0-12-5.4-12-12h-2c0,7.7,6.3,14,14,14v-2ZM152,135c0,6.6-5.4,12-12,12v2c7.7,0,14-6.3,14-14h-2ZM140,123c6.6,0,12,5.4,12,12h2c0-7.7-6.3-14-14-14v2ZM140,121c-7.7,0-14,6.3-14,14h2c0-6.6,5.4-12,12-12v-2Z" fill="#8fbcfd"/>
        </g>
        <path d="M105.4,45.8c0-7.2,5.8-13,13-13s13,5.8,13,13-5.8,13-13,13-13-5.8-13-13Z" fill="#fff"/>
        <g mask="url(#mask-4)">
          <path d="M118.4,57.9c-6.6,0-12-5.4-12-12h-2c0,7.7,6.3,14,14,14v-2ZM130.5,45.8c0,6.6-5.4,12-12,12v2c7.7,0,14-6.3,14-14h-2ZM118.4,33.8c6.6,0,12,5.4,12,12h2c0-7.7-6.3-14-14-14v2ZM118.4,31.8c-7.7,0-14,6.3-14,14h2c0-6.6,5.4-12,12-12v-2Z" fill="#5b98fc"/>
        </g>
        <path d="M118.4,34.3h0c6.3,0,11.5,5.1,11.5,11.5h0c0,6.3-5.1,11.5-11.5,11.5h0c-6.3,0-11.5-5.1-11.5-11.5h0c0-6.3,5.1-11.5,11.5-11.5Z" fill="none"/>
        <path d="M12,53.6c0-7.2,5.8-13,13-13s13,5.8,13,13-5.8,13-13,13-13-5.8-13-13Z" fill="#fff"/>
        <g mask="url(#mask-5)">
          <path d="M25,65.7c-6.6,0-12-5.4-12-12h-2c0,7.7,6.3,14,14,14v-2ZM37,53.6c0,6.6-5.4,12-12,12v2c7.7,0,14-6.3,14-14h-2ZM25,41.6c6.6,0,12,5.4,12,12h2c0-7.7-6.3-14-14-14v2ZM25,39.6c-7.7,0-14,6.3-14,14h2c0-6.6,5.4-12,12-12v-2Z" fill="#a1c9fe"/>
        </g>
        <path d="M146.3,70.2c0-7.2,5.8-13,13-13s13,5.8,13,13-5.8,13-13,13-13-5.8-13-13Z" fill="#fff"/>
        <g mask="url(#mask-6)">
          <path d="M159.3,82.3c-6.6,0-12-5.4-12-12h-2c0,7.7,6.3,14,14,14v-2ZM171.4,70.2c0,6.6-5.4,12-12,12v2c7.7,0,14-6.3,14-14h-2ZM159.3,58.2c6.6,0,12,5.4,12,12h2c0-7.7-6.3-14-14-14v2ZM159.3,56.2c-7.7,0-14,6.3-14,14h2c0-6.6,5.4-12,12-12v-2Z" fill="#5a9cfd"/>
        </g>
        <path d="M81.9,159.8v-25.4h1.1v25.4h-1.1Z" fill="url(#Dégradé_sans_nom_15)" fill-rule="evenodd"/>
        <path d="M69.9,123.6c0-7.2,5.8-13,13-13s13,5.8,13,13-5.8,13-13,13-13-5.8-13-13Z" fill="#fff"/>
        <g mask="url(#mask-7)">
          <path d="M83,135.7c-6.6,0-12-5.4-12-12h-2c0,7.7,6.3,14,14,14v-2ZM95,123.6c0,6.6-5.4,12-12,12v2c7.7,0,14-6.3,14-14h-2ZM83,111.6c6.6,0,12,5.4,12,12h2c0-7.7-6.3-14-14-14v2ZM83,109.6c-7.7,0-14,6.3-14,14h2c0-6.6,5.4-12,12-12v-2Z" fill="#57a0fe"/>
        </g>
      </g>
    </g>
  </g>
  <g id="HEETCH">
    <path d="M69,19.9h0c6.3,0,11.5,5.1,11.5,11.5h0c0,6.3-5.1,11.5-11.5,11.5h0c-6.3,0-11.5-5.1-11.5-11.5h0c0-6.3,5.1-11.5,11.5-11.5Z" fill="#fe2673"/>
    <g>
      <path d="M69,26.2c0-.2.2-.3.4-.4s.4,0,.6,0c.4,0,.8,0,1.2-.1s.5-.1.7,0,.4.3.4.4c.4.4.8.8,1.1,1.1s.2.2.2.4v4.9c0,.2-.2.3-.5.4-.3,0-.7,0-1,.1s0,0,0,0c.4.4.8.9,1.2,1.3s.4.5.5.7c.5,1.8-1.9,3.4-3.2,1.9-.8-1.1-2.4-1.8-1.6-3.4s0-.1,0-.2h-.6c0,0,0,.1,0,.2,0,.6,0,1.1,0,1.7s.1.8,0,1.1-.2.1-.2.1-.1,0-.2,0c-.5,0-1,.1-1.5.2s-.6.1-.8,0-.3-.2-.3-.3c-.5-.5-.9-1-1.3-1.4h0c0-2.7,0-5.4,0-8,0-.2.1-.3.3-.4l2.4-.3c.1,0,.2,0,.3.2.3.3.6.7.9,1s.6.6.6.8v.7c.2,0,.4,0,.6,0v-2.5ZM66.8,31.6l5-.7v-.2c0-1.5.2-3.2,0-4.6s0-.2,0-.2c0-.1-.2,0-.3,0-.6,0-1.3.1-1.9.3s-.2,0-.3.1v2.7c-.1.1-.2,0-.3.1-.5,0-1,.1-1.5.2s-.5.1-.6,0-.1,0-.1,0v-2.6c0-.2-.4,0-.5,0-.5,0-1,.1-1.5.2s-.5,0-.6.2v7.9c0,.2.5,0,.6,0,.5,0,.9-.1,1.4-.2s.6,0,.6-.2c0-.8,0-1.8,0-2.6,0,0,0-.2,0-.2ZM70.5,32.5c-.5,0-1.1.5-1.3,1-.7,1.4.6,2.7,1.9,2s1.2-1.2.9-2-.9-1-1.5-.9Z" fill="#010000"/>
      <path d="M66.8,31.6s0,.1,0,.2c0,.8,0,1.8,0,2.6s-.4.2-.6.2c-.5,0-.9.1-1.4.2s-.5.2-.6,0v-7.9c.1-.2.4-.2.6-.2.5,0,1-.1,1.5-.2s.4-.1.5,0v2.6s.1,0,.2,0c.2,0,.5,0,.6,0,.5,0,1-.1,1.5-.2s.2,0,.3-.1v-2.7c.1-.2.2-.1.4-.1.6-.1,1.3-.2,1.9-.3s.2,0,.3,0,0,.2,0,.2c.1,1.5,0,3.1,0,4.6v.2c0,0-5,.7-5,.7Z" fill="#fcfbfb"/>
      <path d="M70.5,32.5c.7,0,1.3.2,1.5.9s-.2,1.6-.9,2c-1.4.7-2.7-.6-1.9-2s.8-.9,1.3-1Z" fill="#fcfbfb"/>
    </g>
  </g>
  <g id="LMDCVTC">
    <path d="M68.7,64.5h0c6.3,0,11.5,5.1,11.5,11.5h0c0,6.3-5.1,11.5-11.5,11.5h0c-6.3,0-11.5-5.1-11.5-11.5h0c0-6.3,5.1-11.5,11.5-11.5Z"/>
    <g id="LMDCVTC_logo">
      <path d="M71.2,75.4c0-.3.2-.3.5-.3.6,0,.3.6,0,.6,0,0,.2.2.2.2.2.2.4.5.4.9s0,.8,0,1-.1.4-.2.5c0,.3,0,.7-.3.7s-.4,0-.6,0c-.2,0-.3-.2-.3-.4h-4.1c0,.2-.1.4-.3.4s-.5,0-.6,0c-.3,0-.3-.5-.3-.7-.1-.1-.2-.3-.2-.5,0-.3,0-.9,0-1.2s.3-.6.6-.9c0,0,0,0,0,0,0,0,0,0-.1,0-.3-.2-.4-.5,0-.6s.5,0,.5.3l.7-.6c.1,0,.3-.2.4-.2h2.6c.2,0,.3,0,.5.2l.7.6ZM71.2,75.9c0,0-.2-.2-.3-.2-.2-.2-.5-.6-.7-.6s-.1,0-.2,0h-2.5c-.1,0-.2,0-.3.2l-.8.8h4.7ZM65.9,76.4c-.4,0-.5.6,0,.8s.5,0,.7,0,.5,0,.3-.3-.7-.5-.9-.5ZM71.6,76.4c-.2,0-.7.3-.8.5s0,.1,0,.2c.1,0,.7,0,.9,0,.5,0,.4-.9,0-.8ZM70.4,76.9h-3.2c0,.3.1.6.4.7h2.5c.3,0,.4-.4.3-.7Z" fill="#fff"/>
      <path d="M64.6,80.3h8.4v-4.8c0,0,0-.2.1-.2.2-.1.4,0,.4.2v5c0,.2-.1.3-.3.3h-8.9c-.1,0-.2-.1-.2-.3v-7c0,0,0,0,0-.1,1.5-1.2,3-2.4,4.5-3.6,0,0,.2,0,.3,0l4.5,3.6c.3.2,0,.6-.3.5l-4.4-3.5-4.2,3.4v6.5Z" fill="#fff"/>
    </g>
  </g>
  <g id="AXEL">
    <g clip-path="url(#clippath-1)">
      <rect x="20.7" y="102.9" width="16.7" height="16.7" transform="translate(-70.1 53.1) rotate(-45)" fill="#bc322e"/>
    </g>
    <g clip-path="url(#clippath-2)">
      <rect x="23.7" y="105.7" width="10.1" height="8.4" transform="translate(-18.6 6.7) rotate(-10)" fill="#bc322e"/>
    </g>
    <polygon points="27.9 113.7 28.1 113.5 28.6 114.1 28.4 114.3 27.9 113.7" fill="#fb9c24"/>
    <g clip-path="url(#clippath-3)">
      <g>
        <path d="M27.9,113.7l.5.6-.4.3-.4-.6.3-.2h0Z" fill="#fe5126"/>
        <polygon points="27.5 114 27.8 114.7 28 114.5 27.7 113.9 27.5 114" fill="#bf000e"/>
      </g>
    </g>
    <g>
      <path d="M32,112.7c.3.2.6.4,1,.8.3.3.5.6.7.9,0-.3.2-.8,0-1.5s-.5-1.1-.7-1.3c-.3.4-.6.8-.9,1.2" fill="#bc322e"/>
      <g clip-path="url(#clippath-4)">
        <rect x="31.4" y="111.3" width="3" height="3.3" transform="translate(-52.1 31.6) rotate(-30)" fill="#bc322e"/>
      </g>
    </g>
    <g>
      <path d="M31.1,113.2c.3.2.9.5,1.4,1.1.4.5.7,1,.8,1.4l.6-1.1c-.1-.3-.4-.8-.9-1.2-.4-.4-.8-.7-1.1-.8-.3.2-.5.5-.7.7" fill="#e3791c"/>
      <g clip-path="url(#clippath-5)">
        <rect x="30.5" y="112" width="4.1" height="4.2" transform="translate(-58.5 38) rotate(-34.2)" fill="#e3791c"/>
      </g>
    </g>
    <g>
      <path d="M30.2,113.8c.3.1,1,.5,1.6,1.3.5.8.5,1.4.6,1.7.3-.5.7-.8,1.1-1.2,0-.3-.3-1-.9-1.6-.4-.5-.9-.7-1.2-.8-.4.2-.7.4-1.1.6" fill="#bc322e"/>
      <g clip-path="url(#clippath-6)">
        <rect x="29.5" y="112.7" width="4.6" height="4.7" transform="translate(-53.2 31.3) rotate(-30)" fill="#bc322e"/>
      </g>
    </g>
    <g clip-path="url(#clippath-7)">
      <rect x="28.4" y="113.1" width="4.7" height="4.9" transform="translate(-53.7 30.8) rotate(-30)" fill="#e3791c"/>
    </g>
    <g>
      <path d="M27.9,114.9c.2,0,1.1.4,1.6,1.2.4.6.4,1.2.4,1.5.4,0,.8,0,1.3-.1,0-.3,0-1.1-.4-2-.5-.9-1.3-1.3-1.5-1.4-.5.3-.9.5-1.4.8" fill="#bc322e"/>
      <g clip-path="url(#clippath-8)">
        <rect x="27.2" y="113.5" width="4.7" height="4.7" transform="translate(-54 30.3) rotate(-30)" fill="#bc322e"/>
      </g>
    </g>
    <g>
      <path d="M27,116.4s.8-.3,1.4.2c.4.3.5.8.5.9.1,0,.3,0,.6,0,.2,0,.4,0,.5,0,0-.3,0-.9-.5-1.6-.6-.8-1.4-1-1.6-1.1-.3.5-.6,1-.9,1.5" fill="#e3791c"/>
      <g clip-path="url(#clippath-9)">
        <rect x="26.5" y="114.2" width="4" height="4" transform="translate(-73.8 54.2) rotate(-45)" fill="#e3791c"/>
      </g>
    </g>
    <g>
      <path d="M27,116.3c0,.1-.2.6,0,1.2s.7.9.8,1c0-.1.2-.5.6-.7.2-.2.5-.2.6-.3,0-.1,0-.6-.5-1-.3-.2-.6-.3-.9-.3s-.5,0-.6,0" fill="#bc322e"/>
      <g clip-path="url(#clippath-10)">
        <rect x="26.4" y="115.8" width="3.1" height="3.1" transform="translate(-54.9 29.7) rotate(-30)" fill="#bc322e"/>
      </g>
    </g>
    <g clip-path="url(#clippath-11)">
      <g>
        <path d="M27.2,113.1c-.2-.1-.7-.4-1-1-.1-.2-.3-.6-.3-1.1,0-.7.6-1.2.7-1.2v-.3c-.3,0-.5,0-.7,0-.5.2-.8.8-.8,1.3,0,.9.5,1.5.7,1.7.5.6,1.2.7,1.4.7" fill="#fff"/>
        <path d="M29.9,113.1c.3-.1.8-.4,1.2-1,.1-.2.3-.6.3-1.1,0-.7-.7-1.2-.8-1.2,0-.1.1-.2.2-.3.1,0,.3,0,.6,0,.6.2.8.8.9,1.3.1.9-.5,1.5-.7,1.7-.6.6-1.3.7-1.5.7" fill="#fff"/>
        <path d="M29.8,112.3c.5-.5.4-1.3.2-1.8-.2-.4-.5-.6-.7-.7-.2-.1-.5-.3-.9-.3-.5,0-.8.4-1.1.7-.1.2-.3.4-.4.8-.1.6.2,1.1.2,1.2.4.7,1.3.7,1.4.7s.8,0,1.3-.5" fill="#fff"/>
      </g>
    </g>
    <g clip-path="url(#clippath-12)">
      <g>
        <polygon points="30.2 106.5 31.1 105.6 32.7 105.3 33.3 106.2 33.2 107.4 32.4 108.7 31.8 107.6 30.8 106.7 30.2 106.5" fill="#fff"/>
        <polygon points="27.6 106.5 26.6 105.6 25 105.3 24.4 106.2 24.5 107.4 25.4 108.7 26 107.6 26.9 106.7 27.6 106.5" fill="#fff"/>
        <path d="M32.1,108c.6-.5.6-1.3.2-1.6-.3-.3-1-.3-1.4.2.4.5.8,1,1.2,1.5" fill="#121a25"/>
        <path d="M25.6,108c-.6-.5-.6-1.3-.2-1.6.3-.3,1-.3,1.4.2-.4.5-.8,1-1.2,1.5" fill="#121a25"/>
        <path d="M25.4,108.7c-.2-.2-.6-.5-.8-1.1-.2-.7-.3-1.7.2-2.1.6-.4,1.8-.2,2.7.9" fill="none" stroke="#000" stroke-miterlimit="10" stroke-width=".5"/>
        <path d="M32.4,108.7c.2-.2.5-.4.7-1,.2-.6.3-1.7-.2-2.1-.5-.4-1.7-.2-2.5.9" fill="none" stroke="#000" stroke-miterlimit="10" stroke-width=".5"/>
        <path d="M28,114.9c-.1.1-.3.3-.5.6,0,.1-.3.4-.4.8,0,.3-.2.9,0,1.4.2.3.4.6.5.5,0,0-.3-.4-.4-1,0-.5,0-1.3.5-1.7.4-.3,1.1-.3.9-.4,0,0-.3-.2-.6-.3" fill="#fff"/>
        <path d="M32.9,111.5c.2.2,1,1.2.8,2.8-.2,2-2.2,3.5-3.5,3.4-.4,0-.8-.2-1.4,0-.5.2-.8.6-1,.9-.1,0-.2,0-.3-.1-.7-.4-.8-1.6-.5-2.5.3-.7.8-1.1,1.1-1.3,1-.8,1.6-.8,2.6-1.3.6-.3,1.5-.6,2.2-1.9h0Z" fill="none" stroke="#000" stroke-miterlimit="10" stroke-width=".5"/>
        <line x1="26.6" y1="112.8" x2="27.1" y2="115.9" fill="none" stroke="#000" stroke-miterlimit="10" stroke-width=".5"/>
        <polyline points="26.8 114.6 28.1 113.5 28.9 114.3" fill="none" stroke="#000" stroke-miterlimit="10" stroke-width=".1"/>
        <line x1="27.5" y1="114.1" x2="27.9" y2="114.8" fill="none" stroke="#000" stroke-miterlimit="10" stroke-width=".1"/>
        <path d="M30.4,109.4c0,.3-.2.5-.5.5s-.4,0-.5-.1c-.1,0,0-.3,0-.4,0-.3.2-.5.5-.5s.5.2.5.5" fill="#121a25"/>
        <path d="M26.5,109.4c0,.3.2.5.5.5s.4,0,.5-.1c.1,0,0-.3,0-.4,0-.3-.2-.5-.5-.5s-.5.2-.5.5" fill="#121a25"/>
        <path d="M30,109.4c0,.1,0,.2-.2.2s-.2,0-.2-.2,0-.2.2-.2.2,0,.2.2" fill="#fff"/>
        <path d="M27.3,109.4c0,.1,0,.2-.2.2s-.2,0-.2-.2,0-.2.2-.2.2,0,.2.2" fill="#fff"/>
        <path d="M27.8,109c0,0,.1-.4,0-.7-.2-.3-.9-.4-1.4,0,0,0,.4,0,.8.2.3.2.6.4.6.5" fill="#fff"/>
        <path d="M29.1,109c0,0-.1-.4,0-.7.2-.3.9-.4,1.4,0,0,0-.4,0-.8.2-.3.2-.6.4-.6.5" fill="#fff"/>
        <path d="M27.2,111.4c0,0,.2.3.5.4,0,0,.1,0,.2,0,0,0,.2-.1.2-.2s0-.1,0-.1c-.1,0-.2-.1-.3-.2-.1-.1-.2-.2-.2-.3,0-.1,0-.3.1-.3.2-.3.7-.3,1,0,0,0,.3.2.2.4,0,.2-.3.4-.5.5,0,0,0,0,0,0,0,0,0,.2.2.3.2.1.6,0,.8,0,0,0,.1-.2.2-.2,0,0,0,0,.1,0s.1,0,.1,0c0,0-.1.4-.4.5-.3.2-.7.1-1,0-.2.2-.5.3-.8.2-.3-.1-.4-.5-.4-.5,0,0,0,0,0-.1,0,0,0,0,0,0" fill="#121a25"/>
        <path d="M24.4,110c.6,1.9,2.3,3.3,4.2,3.4,2.1.1,4.1-1.3,4.8-3.4-.1-.1-.3-.3-.5-.6-.7-.9-.9-1.6-1.1-2-.9-1.4-4.6-1.5-5.6-.2-.3.5-.4,1-1.1,2-.3.3-.5.6-.7.7h0Z" fill="none" stroke="#000" stroke-miterlimit="10" stroke-width=".5"/>
      </g>
    </g>
  </g>
  <g id="SERENITY">
    <path d="M122.2,44c-.5,0-.4.9.1.8s.4-.9-.1-.8ZM124,45.2v-1.1s0,0,0,0c0,0-.1,0-.2,0-.2,0-.4,0-.6,0s-.2,0-.3,0h0s0,.2,0,.2c0,0,.2,0,.2,0,.1,0,.2.1.2.3,0,.3,0,.6,0,.8,0,.5,0,.9,0,1.4s0,.1,0,.2c.1.5.8.4,1.1.3s.2,0,.2,0c0,0,0-.2,0-.2s-.2,0-.3,0c-.2,0-.2-.2-.2-.4v-1.3h.5c0,0,.2,0,.2.1.3.7.7,1.5,1,2.2,0,0,0,0,0,0l.4-.7-.5-1s0,0,0,0c0,0-.2-.4-.2-.5s0,0,0-.1c0,0,.2-.1.3,0v-.2h-1.8ZM112.8,45.1c-.4,0-.8.1-1,.4-.4.5-.3,1.4.3,1.7s.7.2,1,.1.6-.3.8-.6h-.2c-.1,0-.3.2-.6.3-.8,0-.8-.6-.8-1.2s.1-.6.5-.7h0ZM117.4,45.1c-.4,0-.8.1-1,.4-.4.5-.3,1.4.3,1.7s.7.2,1,.1.6-.3.8-.6c0,0-.1-.1-.2-.1-.1.2-.3.4-.6.4-.7,0-.8-.6-.8-1.2s0-.6.4-.7,0,0,.1,0,0,0,0,0ZM110.6,45.2c-.2,0-.5,0-.7,0-.6.2-.6.9,0,1.2s.7.2.9.4,0,.3,0,.4-.3.2-.4.2c0,0,0,0,0,0,.4,0,1.1-.1,1.1-.6s0-.5-.4-.6-.4-.1-.6-.2-.2,0-.3-.2c-.1-.3.3-.5.5-.5h0ZM126.2,46.9s0,0,0,0c.2-.4.4-.8.6-1.2s0-.2,0-.4c-.2-.4-.8-.1-.7.3s.2.2.2.3c0,.3-.1.6-.2.9h0ZM115.1,45.7s0,0,.1,0c.2,0,.3.2.5.2.4,0,.6-.5.2-.7s-.5,0-.7.2,0,0,0,0,0,.2,0,.2,0,0,0,0ZM121.5,47.4v-.2s0,0-.1,0,0,0-.1,0c0,0,0,0-.1-.2,0-.4,0-.8,0-1.2s-.2-.6-.5-.6-.5,0-.6,0-.3.1-.3.2,0,.2,0,.2,0,0,0,0c0,0,0,0,.1,0,.2,0,.4,0,.4.1s0,.2,0,.3c0,.3,0,.7,0,1s0,.1,0,.2c0,0-.2,0-.2,0h0v.2h1.3ZM123,47.2c-.1,0-.3,0-.3-.2v-1.7s0,0,0,0h-1.1v.2c.2,0,.4,0,.4.3,0,.4,0,.9,0,1.3s-.2.2-.3.2v.2h0s1.4,0,1.4,0h0v-.2ZM110.8,45.2c-.5,0-.4.8,0,.7s.5-.8,0-.7ZM112.5,46.2h1.3s0,0,0-.1c0-.4-.1-.7-.5-.8s-.1,0-.2,0-.2.1-.2.1,0,0,0,0c.1.2,0,.4.1.6h-.5v.2ZM117.1,46.2h1.3s0,0,0,0c0,0,0-.1,0-.2,0-.2,0-.5-.3-.6s-.3-.2-.4-.2-.3.1-.3.2,0,0,0,.1c0,.2,0,.4,0,.5h-.5v.2ZM120,47.4v-.2s0,0-.1,0c0,0-.1,0-.2-.2v-1.8s0,0-.1,0c-.2,0-.4,0-.6,0s-.2,0-.4,0v.2c.2,0,.3,0,.4.3v1.4c0,.2-.2.2-.3.2h0c0,.1,0,.2,0,.2h1.3ZM113.9,45.3v.2c.2,0,.3,0,.4.3v1.4c0,.2-.2.2-.3.2v.2h1.5v-.2c-.2,0-.4,0-.4-.2v-1.8s0,0,0,0h-1ZM109.8,46.6c-.5,0-.4.8,0,.8s.6-.9,0-.8Z" fill="#fff"/>
    <path d="M125.2,48.4s-.1,0-.1,0c-.3,0-.5-.3-.4-.5s.6-.2.6,0,0,.3.1.1.1-.1.1-.1,0,0,0,0h0c0,.1,0,.2-.1.3,0,0-.2.2-.3.2Z"/>
    <path d="M127.9,47s0,0,0,0c0,.1-.1.3-.3.3-.4,0-.6-.4-.3-.6s.6,0,.6.2Z"/>
    <path d="M124,45.2h1.8v.2c0,0-.3,0-.3,0s0,0,0,.1c0,0,.2.4.2.5s0,0,0,0l.5,1-.4.7s0,0,0,0c-.3-.7-.7-1.5-1-2.2,0,0-.1-.1-.2-.1h-.5v1.3c0,.2,0,.3.2.4s.2,0,.3,0,0,.1,0,.2c0,0-.1,0-.2,0-.4.1-1,.2-1.1-.3s0-.1,0-.2c0-.4,0-.9,0-1.4s0-.6,0-.8,0-.2-.2-.3-.1,0-.2,0h0c0-.1,0-.2,0-.2.1,0,.2,0,.3,0,.2,0,.4,0,.6,0s.1,0,.2,0,0,0,0,0v1.1Z"/>
    <path d="M110.6,45.2h0c-.2,0-.6.3-.5.6s.2.1.3.2c.2,0,.4.1.6.2.3.2.4.3.4.6,0,.5-.7.7-1.1.6s0,0,0,0c.1,0,.3-.1.4-.2s.1-.3,0-.4c-.1-.2-.7-.2-.9-.4-.5-.3-.5-1,0-1.2s.5-.1.7,0Z"/>
    <path d="M117.4,45.1s0,0,0,0,0,0-.1,0c-.3.1-.3.4-.4.7,0,.6,0,1.2.8,1.2s.4-.2.6-.4c0,0,.1.1.2.1-.2.3-.5.5-.8.6s-.7,0-1-.1c-.6-.3-.7-1.2-.3-1.7s.6-.4,1-.4Z"/>
    <path d="M112.8,45.1h0c-.3.2-.5.4-.5.8,0,.6,0,1.3.8,1.2s.4-.2.6-.4h.2c-.2.4-.4.6-.8.7s-.7,0-1-.1c-.6-.3-.7-1.2-.3-1.7s.6-.4,1-.4Z"/>
    <path d="M121.5,47.4h-1.3v-.2h0c0,0,.2,0,.2-.1s0-.1,0-.2c0-.3,0-.7,0-1s0-.2,0-.3c0-.2-.3-.2-.4-.1s0,0-.1,0,0,0,0,0,0-.1,0-.2c0,0,.2-.2.3-.2.2,0,.4,0,.6,0,.3,0,.4.3.5.6s0,.8,0,1.2,0,.1.1.2,0,0,.1,0,0,0,.1,0v.2Z"/>
    <path d="M113.9,45.3h1s0,0,0,0v1.8c0,.2.3.2.4.2v.2h-1.5v-.2c.1,0,.3,0,.3-.2v-1.4c0-.2-.2-.3-.4-.3v-.2Z"/>
    <path d="M120,47.4h-1.3v-.2c.1,0,.3,0,.3-.2v-1.4c0-.2-.2-.3-.4-.3v-.2c.1,0,.2,0,.4,0,.2,0,.4,0,.6,0s0,0,.1,0v1.8c0,0,0,.1.2.2s0,0,.1,0v.2Z"/>
    <path d="M123,47.2v.2h0s-1.4,0-1.4,0h0v-.2c.2,0,.3,0,.3-.2,0-.4,0-.9,0-1.3,0-.2-.2-.3-.4-.3v-.2h1.1s0,0,0,0v1.7c0,.2.2.2.3.2Z"/>
    <path d="M117.1,46.2v-.2h.5c0-.2,0-.4,0-.5s0,0,0-.1c0,0,.2-.2.3-.2.1,0,.3.1.4.2.2.2.2.4.3.6s0,.1,0,.2,0,0,0,0h-1.3Z"/>
    <path d="M112.5,46.2v-.2h.5c0-.2,0-.4-.1-.6s0,0,0,0,.2-.1.2-.1c0,0,.2,0,.2,0,.4.2.5.5.5.8s0,0,0,.1h-1.3Z"/>
    <path d="M126.2,46.9h0c.1-.3.3-.7.2-.9s-.1-.2-.2-.3c-.1-.4.5-.7.7-.3s0,.3,0,.4c-.2.4-.4.8-.6,1.2,0,0,0,0,0,0Z"/>
    <path d="M115.1,45.7s0,0,0,0c0,0,0-.2,0-.2s0,0,0,0c.2-.1.5-.3.7-.2.4.2.2.7-.2.7s-.2-.2-.5-.2,0,0-.1,0Z"/>
    <path d="M122.2,44c.6,0,.6.7.1.8s-.6-.7-.1-.8Z"/>
    <path d="M109.8,46.6c.6,0,.6.8,0,.8s-.5-.7,0-.8Z"/>
    <path d="M110.8,45.2c.5,0,.6.7,0,.7s-.5-.7,0-.7Z"/>
  </g>
  <g id="BOLT">
    <path d="M159.3,58.8h0c6.3,0,11.5,5.1,11.5,11.5h0c0,6.3-5.1,11.5-11.5,11.5h0c-6.3,0-11.5-5.1-11.5-11.5h0c0-6.3,5.1-11.5,11.5-11.5Z" fill="#34d186"/>
    <path id="Logo_Bolt" d="M164.6,66.2v7.5h-1.8v-7.2l1.8-.4ZM159.5,74.5c.5,0,.9.4.9.9s-.4.9-.9.9-.9-.4-.9-.9.4-.9.9-.9ZM159.5,68.4c1.5,0,2.8,1.2,2.8,2.7s-1.2,2.7-2.8,2.7-2.8-1.2-2.8-2.7,1.2-2.7,2.8-2.7h0ZM159.5,72c.5,0,.9-.4.9-.9s-.4-.9-.9-.9-.9.4-.9.9.4.9.9.9ZM153.9,72c.3,0,.6-.2.6-.6s0-.3-.2-.4c-.1-.1-.2-.2-.4-.2h-1.3v1.1h1.3ZM152.5,68v1.1h1c.3,0,.6-.2.6-.6,0-.1,0-.3-.2-.4-.1-.1-.2-.2-.4-.2h-1ZM155.5,69.8c.4.4.7,1,.7,1.7,0,1.3-1.1,2.3-2.3,2.3h-3.1v-7.5h2.8c1.3,0,2.3,1,2.3,2.3s-.1.9-.3,1.2ZM168,70.2h-.9v1.4c0,.4.1.7.5.7s.4,0,.4,0v1.3s-.4.2-.9.2h0s0,0,0,0h0s0,0,0,0c-1,0-1.7-.7-1.7-1.8v-4.6l1.8-.4v1.4h.9v1.8h0Z" fill="#fff" fill-rule="evenodd"/>
  </g>
  <g id="UBER">
    <path d="M82.9,112.3h0c6.3,0,11.5,5.1,11.5,11.5h0c0,6.3-5.1,11.5-11.5,11.5h0c-6.3,0-11.5-5.1-11.5-11.5h0c0-6.3,5.1-11.5,11.5-11.5Z" fill="#010202"/>
    <path d="M75.3,125.2c0,.2.2.4.3.5.1.1.3.2.5.3.2,0,.4.1.6.1s.4,0,.6-.1c.2,0,.3-.2.5-.3.1-.1.2-.3.3-.5,0-.2.1-.4.1-.6v-3.6h.9v5.9h-.9v-.5c-.2.2-.4.4-.7.5-.3.1-.6.2-.9.2s-.6,0-.9-.2c-.3-.1-.5-.3-.7-.5-.2-.2-.4-.4-.5-.7-.1-.3-.2-.6-.2-.9v-3.7h.9v3.6c0,.2,0,.4.1.6ZM80.5,120.9v2.1c.2-.2.4-.4.7-.5.3-.1.5-.2.8-.2s.6,0,.9.2c.3.1.5.3.7.5.2.2.4.4.5.7.1.3.2.6.2.9s0,.6-.2.9c-.1.3-.3.5-.5.7-.2.2-.4.4-.7.5-.3.1-.6.2-.9.2s-.6,0-.8-.2-.5-.3-.7-.5v.5h-.8v-5.9h.8ZM80.6,125.3c0,.2.2.3.3.5.1.1.3.2.5.3.2,0,.4.1.6.1s.4,0,.6-.1c.2,0,.3-.2.5-.3.1-.1.2-.3.3-.5,0-.2.1-.4.1-.6s0-.4-.1-.6c0-.2-.2-.3-.3-.5-.1-.1-.3-.2-.5-.3-.2,0-.4-.1-.6-.1s-.4,0-.6.1c-.2,0-.3.2-.5.3-.1.1-.2.3-.3.5,0,.2-.1.4-.1.6s0,.4.1.6h0ZM84.7,123.8c.1-.3.3-.5.5-.7.2-.2.4-.4.7-.5.3-.1.6-.2.9-.2s.6,0,.9.2c.3.1.5.3.7.5.2.2.3.4.4.7.1.3.2.6.2.9v.3h-3.5c0,.2,0,.3.2.5,0,.1.2.3.3.4.1.1.3.2.4.3.2,0,.3,0,.5,0,.5,0,.9-.2,1.2-.6l.6.5c-.2.3-.5.5-.8.7-.3.2-.7.2-1.1.2s-.6,0-.9-.2c-.3-.1-.5-.3-.7-.5-.2-.2-.4-.4-.5-.7-.1-.3-.2-.6-.2-.9s0-.6.2-.9h0ZM85.9,123.5c-.2.2-.4.5-.5.8h2.6c0-.3-.2-.6-.5-.8-.2-.2-.5-.3-.8-.3s-.6,0-.8.3h0ZM90.5,123.6c-.2.2-.3.5-.3.8v2.4h-.8v-4.3h.8v.5c.1-.2.2-.3.4-.4.2,0,.4-.2.6-.2h.3v.8h-.4c-.3,0-.5,0-.7.3Z" fill="#fff"/>
  </g>
</svg>