<svg width="181" height="180" viewBox="0 0 181 180" fill="none" xmlns="http://www.w3.org/2000/svg">
<circle cx="90.6241" cy="90" r="90" fill="#0061FF" fill-opacity="0.06"/>
<circle cx="90.6243" cy="90" r="67.6" fill="#0061FF" fill-opacity="0.12"/>
<rect x="50.2236" y="49.5965" width="80.211" height="80.8051" rx="40.1055" fill="url(#paint0_linear_5652_45824)"/>
<rect x="53.7886" y="49.2994" width="77.2402" height="77.2402" rx="38.6201" fill="url(#paint1_linear_5652_45824)"/>
<path d="M92.3439 112.357C78.7299 112.357 67.6942 101.321 67.6942 87.707C67.6942 74.093 78.7299 63.0573 92.3439 63.0573C105.958 63.0573 116.994 74.093 116.994 87.707C116.994 101.321 105.958 112.357 92.3439 112.357ZM89.8789 95.1019V100.032H94.8089V95.1019H89.8789ZM94.8089 91.047C96.7899 90.45 98.4906 89.1612 99.6011 87.4155C100.712 85.6698 101.158 83.5832 100.86 81.5359C100.561 79.4885 99.5369 77.6165 97.9739 76.2608C96.4109 74.9051 94.4129 74.1559 92.3439 74.1497C90.3494 74.1495 88.4164 74.8402 86.8736 76.1044C85.3309 77.3685 84.2736 79.128 83.8817 81.0836L88.7179 82.0524C88.8552 81.3657 89.1846 80.7321 89.6678 80.2254C90.1511 79.7186 90.7683 79.3595 91.4477 79.1898C92.1271 79.0201 92.8407 79.0468 93.5054 79.2669C94.1702 79.4869 94.7589 79.8912 95.2028 80.4327C95.6468 80.9741 95.9279 81.6306 96.0134 82.3256C96.099 83.0206 95.9853 83.7256 95.6858 84.3585C95.3863 84.9915 94.9132 85.5264 94.3216 85.901C93.73 86.2756 93.0441 86.4745 92.3439 86.4745C91.6901 86.4745 91.0632 86.7342 90.6009 87.1965C90.1386 87.6588 89.8789 88.2857 89.8789 88.9395V92.6369H94.8089V91.047Z" fill="url(#paint2_linear_5652_45824)"/>
<defs>
<linearGradient id="paint0_linear_5652_45824" x1="78.9122" y1="55.8351" x2="90.6616" y2="130.349" gradientUnits="userSpaceOnUse">
<stop stop-color="#57BDFD"/>
<stop offset="1" stop-color="#3987FF"/>
</linearGradient>
<linearGradient id="paint1_linear_5652_45824" x1="92.4087" y1="30.867" x2="113.056" y2="126.54" gradientUnits="userSpaceOnUse">
<stop stop-color="#02B3FB"/>
<stop offset="1" stop-color="#0061FF"/>
</linearGradient>
<linearGradient id="paint2_linear_5652_45824" x1="114.791" y1="93.2395" x2="57.3123" y2="84.6063" gradientUnits="userSpaceOnUse">
<stop stop-color="white"/>
<stop offset="1" stop-color="white" stop-opacity="0"/>
</linearGradient>
</defs>
</svg>
