<?xml version="1.0" encoding="UTF-8"?>
<svg id="Calque_1" xmlns="http://www.w3.org/2000/svg" version="1.1" xmlns:xlink="http://www.w3.org/1999/xlink" viewBox="0 0 188 159">
  <!-- Generator: Adobe Illustrator 29.8.2, SVG Export Plug-In . SVG Version: 2.1.1 Build 3)  -->
  <defs>
    <clipPath id="clippath">
      <rect x="126" y="30" width="24" height="24" fill="none"/>
    </clipPath>
    <clipPath id="clippath-1">
      <path d="M94.5,58.7l-17.8,9.7v19.8c-.1,0,17.6,10,17.6,10l17.8-9.7v-19.8c.1,0-17.6-10-17.6-10ZM110.1,87.3l-15.7,8.6-15.6-8.8v-17.4c.1,0,15.9-8.6,15.9-8.6l15.6,8.8v17.4q-.1,0-.1,0Z" fill="none"/>
    </clipPath>
    <clipPath id="clippath-2">
      <polygon points="92.7 63.2 99.8 64.1 103.2 66.6 107.3 74 108.1 74.8 105.1 81 97.7 85.3 88.8 84.9 82.2 80.2 79.4 74.5 82.7 70.9 85.4 66 89.6 63.4 92.7 63.2" fill="none"/>
    </clipPath>
    <clipPath id="clippath-3">
      <rect x="64.9" y="50.4" width="58.3" height="58.3" fill="none"/>
    </clipPath>
    <clipPath id="clippath-4">
      <path d="M103.9,83.3c.9.6,2,1.4,3.1,2.5.9,1,1.7,1.9,2.2,2.8.2-.8.5-2.6,0-4.8-.5-2.2-1.7-3.6-2.3-4.2-1,1.2-2,2.4-3,3.7h0Z" fill="none"/>
    </clipPath>
    <clipPath id="clippath-5">
      <path d="M101.2,85c1,.5,2.9,1.6,4.4,3.5,1.4,1.7,2.1,3.3,2.4,4.4l1.9-3.6c-.5-1-1.3-2.5-2.8-4-1.3-1.3-2.6-2.2-3.6-2.7-.8.8-1.6,1.5-2.4,2.3h0Z" fill="none"/>
    </clipPath>
    <clipPath id="clippath-6">
      <path d="M98.3,86.8c1,.5,3.3,1.6,5,4.2,1.5,2.5,1.7,4.4,1.8,5.4,1.1-1.5,2.3-2.4,3.4-3.8-.3-1-1-3.1-2.9-5.1-1.4-1.5-2.9-2.3-3.8-2.6-1.2.6-2.3,1.3-3.4,1.9h0Z" fill="none"/>
    </clipPath>
    <clipPath id="clippath-7">
      <path d="M94.9,88c.9.5,3.6,1.7,5.1,4.5,1.3,2.5,1.3,4.8,1.2,5.9,1.3-.8,2.5-1.5,3.8-2.3,0-1-.2-3.3-1.7-5.7-1.4-2.3-3.2-3.6-4.1-4.1-1.3.5-3,1.2-4.3,1.7Z" fill="none"/>
    </clipPath>
    <clipPath id="clippath-8">
      <path d="M90.8,90.2c.8.2,3.5,1.2,5.2,4,1.2,2,1.4,3.9,1.4,4.8,1.3-.2,2.7-.3,4-.5.1-.9.2-3.6-1.3-6.4-1.6-2.8-4-4-4.8-4.4-1.5.8-3,1.6-4.4,2.4h0Z" fill="none"/>
    </clipPath>
    <clipPath id="clippath-9">
      <path d="M88.1,95c.1,0,2.6-.8,4.4.8,1.2,1,1.5,2.4,1.5,2.9.4-.1,1.1-.3,1.9-.2.7,0,1.3.2,1.7.3,0-.8-.1-2.9-1.6-5-1.8-2.6-4.5-3.3-5.2-3.4-.9,1.6-1.9,3.2-2.8,4.8h.1Z" fill="none"/>
    </clipPath>
    <clipPath id="clippath-10">
      <path d="M88.1,94.8c-.2.4-.8,2,0,4,.7,1.9,2.2,2.9,2.6,3.1.2-.5.8-1.5,1.9-2.2.8-.5,1.5-.8,2-.9,0-.3-.2-2-1.7-3.3-.9-.8-2-1-2.9-1s-1.7.3-1.8.3h0Z" fill="none"/>
    </clipPath>
    <clipPath id="clippath-11">
      <rect x="64.9" y="50.4" width="58.3" height="58.3" fill="none"/>
    </clipPath>
    <clipPath id="clippath-12">
      <rect x="64.9" y="50.4" width="58.3" height="58.3" fill="none"/>
    </clipPath>
  </defs>
  <rect x=".5" y=".5" width="187" height="158" rx="8.5" ry="8.5" fill="#f8fbfd" stroke="#edf2f8"/>
  <circle cx="93.5" cy="79.5" r="53" fill="#fff" stroke="#a9dafd"/>
  <path d="M138,22.4h0c10.8,0,19.6,8.8,19.6,19.6h0c0,10.8-8.8,19.6-19.6,19.6h0c-10.8,0-19.6-8.8-19.6-19.6h0c0-10.8,8.8-19.6,19.6-19.6Z" fill="#fff" stroke="#a9dafd" stroke-width="1.2"/>
  <g clip-path="url(#clippath)">
    <path d="M139,51v2.5l-3-2-3,2v-2.5h-.5c-.9,0-1.8-.4-2.5-1-.7-.7-1-1.5-1-2.5v-12.5c0-.8.3-1.6.9-2.1.6-.6,1.3-.9,2.1-.9h14c.3,0,.5.1.7.3.2.2.3.4.3.7v17c0,.3-.1.5-.3.7-.2.2-.4.3-.7.3h-7ZM133,49v-2h6v2h6v-3h-12.5c-.4,0-.8.2-1.1.4-.3.3-.4.7-.4,1.1s.2.8.4,1.1c.3.3.7.4,1.1.4h.5ZM133,35v2h2v-2h-2ZM133,38v2h2v-2h-2ZM133,41v2h2v-2h-2Z" fill="#fe9543"/>
  </g>
  <g>
    <g clip-path="url(#clippath-1)">
      <rect x="67.8" y="51.9" width="53.2" height="53.2" transform="translate(-27.8 89.8) rotate(-45)" fill="#bc322e"/>
    </g>
    <g clip-path="url(#clippath-2)">
      <rect x="77.7" y="60.9" width="32.1" height="26.8" transform="translate(-11.5 17.4) rotate(-10)" fill="#bc322e"/>
    </g>
    <polygon points="91 86.6 91.7 86 93.2 87.7 92.4 88.3 91 86.6" fill="#fb9c24"/>
    <g clip-path="url(#clippath-3)">
      <g>
        <path d="M91,86.4l1.6,1.8-1.3.8-1.3-2,.9-.6h0Z" fill="#fe5126"/>
        <polygon points="89.5 87.5 90.4 89.6 91.4 89 90.2 87 89.5 87.5" fill="#bf000e"/>
      </g>
    </g>
    <g>
      <path d="M103.9,83.3c.9.6,2,1.4,3.1,2.5.9,1,1.7,1.9,2.2,2.8.2-.8.5-2.6,0-4.8s-1.7-3.6-2.3-4.2c-1,1.2-2,2.4-3,3.7" fill="#bc322e"/>
      <g clip-path="url(#clippath-4)">
        <rect x="102" y="78.7" width="9.6" height="10.7" transform="translate(-27.7 64.6) rotate(-30)" fill="#bc322e"/>
      </g>
    </g>
    <g>
      <path d="M101.2,85c1,.5,2.9,1.6,4.4,3.5,1.4,1.7,2.1,3.3,2.4,4.4l1.9-3.6c-.5-1-1.3-2.5-2.8-4-1.3-1.3-2.6-2.2-3.6-2.7-.8.8-1.6,1.5-2.4,2.3" fill="#e3791c"/>
      <g clip-path="url(#clippath-5)">
        <rect x="99.1" y="81" width="13" height="13.4" transform="translate(-31.1 74.5) rotate(-34.2)" fill="#e3791c"/>
      </g>
    </g>
    <g>
      <path d="M98.3,86.8c1,.5,3.3,1.6,5,4.2,1.5,2.5,1.7,4.4,1.8,5.4,1.1-1.5,2.3-2.4,3.4-3.8-.3-1-1-3.1-2.9-5.1-1.4-1.5-2.9-2.3-3.8-2.6-1.2.6-2.3,1.3-3.4,1.9" fill="#bc322e"/>
      <g clip-path="url(#clippath-6)">
        <rect x="96.1" y="83.1" width="14.6" height="15.1" transform="translate(-31.5 63.8) rotate(-30)" fill="#bc322e"/>
      </g>
    </g>
    <g clip-path="url(#clippath-7)">
      <rect x="92.5" y="84.6" width="14.9" height="15.6" transform="translate(-32.8 62.4) rotate(-30)" fill="#e3791c"/>
    </g>
    <g>
      <path d="M90.8,90.2c.8.2,3.5,1.2,5.2,4,1.2,2,1.4,3.9,1.4,4.8,1.3-.2,2.7-.3,4-.5.1-.9.2-3.6-1.3-6.4-1.6-2.8-4-4-4.8-4.4-1.5.8-3,1.6-4.4,2.4" fill="#bc322e"/>
      <g clip-path="url(#clippath-8)">
        <rect x="88.7" y="85.8" width="15" height="15.2" transform="translate(-33.8 60.6) rotate(-30)" fill="#bc322e"/>
      </g>
    </g>
    <g>
      <path d="M88.1,95c.1,0,2.6-.8,4.4.8,1.2,1,1.5,2.4,1.5,2.9.4-.1,1.1-.3,1.9-.2.7,0,1.3.2,1.7.3,0-.8-.1-2.9-1.6-5-1.8-2.6-4.5-3.3-5.2-3.4-.9,1.6-1.9,3.2-2.8,4.8" fill="#e3791c"/>
      <g clip-path="url(#clippath-9)">
        <rect x="86.4" y="88.2" width="12.7" height="12.7" transform="translate(-39.7 93.3) rotate(-45)" fill="#e3791c"/>
      </g>
    </g>
    <g>
      <path d="M88.1,94.8c-.2.4-.8,2,0,4s2.2,2.9,2.6,3.1c.2-.5.8-1.5,1.9-2.2.8-.5,1.5-.8,2-.9,0-.3-.2-2-1.7-3.3-.9-.8-2-1-2.9-1s-1.7.3-1.8.3" fill="#bc322e"/>
      <g clip-path="url(#clippath-10)">
        <rect x="86" y="93.2" width="9.8" height="9.9" transform="translate(-36.9 58.6) rotate(-30)" fill="#bc322e"/>
      </g>
    </g>
    <g clip-path="url(#clippath-11)">
      <g>
        <path d="M88.8,84.6c-.7-.3-2.3-1.3-3.3-3.3-.3-.7-1-2-.8-3.6.3-2.3,2-3.7,2.3-3.8l-.5-1.1c-.4,0-1,0-1.6.2-1.6.7-2.4,2.7-2.6,4.1-.3,2.8,1.6,4.8,2.1,5.4,1.7,1.8,3.7,2.1,4.4,2.2" fill="#fff"/>
        <path d="M97.3,84.6c.8-.3,2.6-1.3,3.7-3.3.4-.7,1.1-2,.9-3.6-.3-2.3-2.2-3.7-2.6-3.8.2-.3.3-.8.5-1.1.4,0,1.1,0,1.8.2,1.8.7,2.7,2.7,2.9,4.1.3,2.8-1.7,4.8-2.3,5.4-1.9,1.8-4.1,2.1-4.9,2.2" fill="#fff"/>
        <path d="M96.9,82.1c1.5-1.7,1.2-4.2.5-5.7-.6-1.3-1.7-2-2.1-2.3-.7-.5-1.6-1.1-2.9-1-1.6,0-2.7,1.3-3.4,2.1-.5.5-1.1,1.3-1.4,2.4-.4,1.9.6,3.5.7,3.7,1.4,2.2,4,2.3,4.4,2.3s2.6.1,4.1-1.6" fill="#fff"/>
      </g>
    </g>
    <g clip-path="url(#clippath-12)">
      <g>
        <polygon points="98.2 63.5 101.3 60.6 106.2 59.6 108.1 62.5 107.8 66.5 105.2 70.6 103.2 66.9 100.2 64.2 98.2 63.5" fill="#fff"/>
        <polygon points="89.8 63.5 86.7 60.6 81.8 59.6 79.9 62.4 80.1 66.5 82.8 70.6 84.8 66.9 87.8 64.2 89.8 63.5" fill="#fff"/>
        <path d="M104.3,68.4c1.9-1.6,1.9-4.2.6-5.2-1-.9-3.1-.8-4.5.6,1.3,1.6,2.6,3.1,3.9,4.7" fill="#121a25"/>
        <path d="M83.6,68.4c-1.9-1.6-1.9-4.2-.6-5.2,1-.9,3.1-.8,4.5.6-1.3,1.6-2.6,3.1-3.9,4.7" fill="#121a25"/>
        <path d="M82.9,70.6c-.7-.5-1.9-1.7-2.6-3.6-.8-2.1-1-5.4.8-6.8,1.9-1.4,5.8-.6,8.7,3" fill="none" stroke="#000" stroke-miterlimit="10" stroke-width="1.7"/>
        <path d="M105.3,70.4c.6-.5,1.6-1.4,2.3-3.3.7-2,.9-5.3-.8-6.6-1.7-1.3-5.5-.7-8.1,2.8" fill="none" stroke="#000" stroke-miterlimit="10" stroke-width="1.7"/>
        <path d="M91.3,90.3c-.5.5-1.1,1.1-1.7,2-.3.5-.8,1.3-1.2,2.5-.3.9-.8,2.7,0,4.4.5,1.1,1.4,1.8,1.6,1.7.2-.1-.9-1.3-1.2-3.1-.3-1.7,0-4.2,1.6-5.5,1.2-1,3.4-1,2.7-1.3-.3-.1-1-.6-1.9-.8" fill="#fff"/>
        <path d="M106.9,79.5c.7.8,3.1,4,2.6,9-.8,6.2-6.9,11.1-11.3,10.8-1.3-.1-2.7-.7-4.4,0-1.6.6-2.6,1.9-3.2,2.9-.3,0-.7-.2-.9-.3-2.1-1.2-2.6-5.1-1.5-7.9.8-2.3,2.5-3.6,3.4-4.3,3.3-2.4,5.2-2.5,8.3-4,1.9-.9,4.7-2,7.1-6.1h0Z" fill="none" stroke="#000" stroke-miterlimit="10" stroke-width="1.7"/>
        <line x1="86.8" y1="83.7" x2="88.3" y2="93.6" fill="none" stroke="#000" stroke-miterlimit="10" stroke-width="1.7"/>
        <polyline points="87.5 89.4 91.7 85.8 94 88.4" fill="none" stroke="#000" stroke-miterlimit="10" stroke-width=".3"/>
        <line x1="89.6" y1="87.6" x2="90.8" y2="90" fill="none" stroke="#000" stroke-miterlimit="10" stroke-width=".3"/>
        <path d="M98.9,72.8c0,1-.8,1.7-1.7,1.7s-1.2,0-1.5-.3c-.3-.3-.2-.9-.2-1.4,0-1,.8-1.7,1.7-1.7s1.7.8,1.7,1.7" fill="#121a25"/>
        <path d="M86.6,72.8c0,1,.8,1.7,1.7,1.7s1.2,0,1.5-.3c.3-.3.2-.9.2-1.4,0-1-.8-1.7-1.7-1.7s-1.7.8-1.7,1.7" fill="#121a25"/>
        <path d="M97.7,72.7c0,.3-.3.6-.6.6s-.6-.3-.6-.6.3-.6.6-.6.6.3.6.6" fill="#fff"/>
        <path d="M89,72.7c0,.3-.3.6-.6.6s-.6-.3-.6-.6.3-.6.6-.6.6.3.6.6" fill="#fff"/>
        <path d="M90.7,71.5c0-.3.4-1.4-.2-2.2-.7-1-2.7-1.3-4.5,0,.3,0,1.4,0,2.7.7,1.1.6,1.9,1.2,2,1.5" fill="#fff"/>
        <path d="M94.6,71.3c0-.3-.4-1.4.2-2.2.7-1,2.7-1.3,4.5,0-.3,0-1.4,0-2.7.7-1.1.6-1.9,1.2-2,1.5" fill="#fff"/>
        <path d="M88.8,79c.1.2.6,1,1.5,1.2.2,0,.5.1.8,0,.2-.1.5-.3.5-.6s-.1-.3-.2-.4c-.3-.2-.6-.3-.9-.6-.4-.4-.5-.8-.6-1-.1-.5.3-1,.3-1,.7-.9,2.3-1,3.3-.2.1,0,.8.6.8,1.3,0,.6-.8,1.4-1.5,1.6,0,0-.2,0-.3.2-.1.2.2.7.5.9.7.5,1.8.3,2.4-.3.3-.3.5-.6.6-.8.1,0,.2,0,.4,0s.3.2.4.2c-.1.3-.5,1.2-1.4,1.6-1,.5-2.2.4-3.3-.2-.6.7-1.6.9-2.4.6-1.1-.5-1.3-1.6-1.4-1.7,0,0,0-.2.2-.3.1-.1.2-.2.3-.2" fill="#121a25"/>
        <path d="M79.6,74.8c1.9,6.1,7.3,10.4,13.5,10.8,6.8.4,13.2-4,15.3-10.7-.4-.4-1-1.1-1.7-2-2.3-3-2.7-5-3.6-6.2-3-4.5-14.6-4.9-17.8-.6-1.1,1.5-1.2,3.3-3.6,6.4-.8,1-1.6,1.9-2.1,2.3h0Z" fill="none" stroke="#000" stroke-miterlimit="10" stroke-width="1.7"/>
      </g>
    </g>
  </g>
</svg>