<?xml version="1.0" encoding="UTF-8"?>
<svg id="Calque_1" xmlns="http://www.w3.org/2000/svg" version="1.1" xmlns:xlink="http://www.w3.org/1999/xlink" viewBox="0 0 100 100">
  <!-- Generator: Adobe Illustrator 29.8.2, SVG Export Plug-In . SVG Version: 2.1.1 Build 3)  -->
  <defs>
    <clipPath id="clippath">
      <path d="M50.9,14.3l-30.6,16.7-.2,33.9,30.4,17.1,30.6-16.7.2-33.9-30.4-17.1ZM77.6,63.3l-27,14.8-26.8-15.1.2-29.9,27-14.8,26.8,15.1-.2,29.9Z" fill="none"/>
    </clipPath>
    <clipPath id="clippath-1">
      <polygon points="47.7 22.1 60 23.5 65.7 27.9 72.8 40.5 74.2 42 69 52.6 56.4 60 41 59.3 29.7 51.2 24.9 41.5 30.7 35.3 35.2 26.8 42.4 22.3 47.7 22.1" fill="none"/>
    </clipPath>
    <clipPath id="clippath-2">
      <rect y="0" width="100" height="100" fill="none"/>
    </clipPath>
    <clipPath id="clippath-3">
      <path d="M66.9,56.5c1.5,1,3.4,2.4,5.3,4.3,1.6,1.7,2.9,3.3,3.8,4.8.4-1.4.9-4.5,0-8.2-.9-3.7-2.9-6.1-3.9-7.2-1.7,2.1-3.4,4.2-5.1,6.4" fill="#bc322e"/>
    </clipPath>
    <clipPath id="clippath-4">
      <path d="M62.4,59.4c1.8.9,4.9,2.7,7.6,6,2.4,2.9,3.6,5.7,4.2,7.5l3.2-6.1c-.8-1.8-2.3-4.3-4.8-6.8-2.3-2.3-4.5-3.7-6.2-4.6-1.4,1.3-2.7,2.6-4.1,3.9" fill="#e3791c"/>
    </clipPath>
    <clipPath id="clippath-5">
      <path d="M57.3,62.5c1.7.8,5.7,2.7,8.5,7.2,2.6,4.3,3,7.5,3.1,9.3,1.9-2.5,4-4.2,5.9-6.6-.5-1.8-1.7-5.4-4.9-8.7-2.4-2.5-5-3.9-6.6-4.5-2,1.1-3.9,2.2-5.9,3.3" fill="#bc322e"/>
    </clipPath>
    <clipPath id="clippath-6">
      <path d="M51.6,64.6c1.5.8,6.2,3,8.8,7.8,2.2,4.3,2.2,8.3,2.1,10.1,2.2-1.3,4.3-2.6,6.5-3.9,0-1.8-.4-5.7-2.9-9.8-2.4-4-5.5-6.2-7.1-7.1-2.2.9-5.2,2-7.4,2.9" fill="none"/>
    </clipPath>
    <clipPath id="clippath-7">
      <path d="M44.5,68.4c1.3.4,6,2,9,6.8,2.1,3.4,2.4,6.7,2.4,8.2,2.3-.3,4.6-.5,6.9-.8.2-1.6.4-6.1-2.3-10.9-2.8-4.8-6.9-6.9-8.3-7.5-2.5,1.4-5.1,2.8-7.6,4.2" fill="#bc322e"/>
    </clipPath>
    <clipPath id="clippath-8">
      <path d="M39.8,76.6c.2,0,4.4-1.4,7.6,1.3,2.1,1.8,2.5,4.2,2.5,4.9.7-.2,1.9-.5,3.2-.4,1.2,0,2.2.3,2.9.5,0-1.4-.2-5-2.7-8.6-3.1-4.5-7.7-5.7-8.9-5.9-1.6,2.7-3.2,5.5-4.8,8.2" fill="#e3791c"/>
    </clipPath>
    <clipPath id="clippath-9">
      <path d="M39.9,76.2c-.3.7-1.3,3.5-.1,6.8,1.2,3.3,3.7,4.9,4.4,5.3.4-.8,1.3-2.5,3.2-3.8,1.3-.9,2.6-1.3,3.5-1.5,0-.6-.4-3.5-2.9-5.6-1.6-1.3-3.4-1.7-4.9-1.7-1.7,0-3,.5-3.1.5" fill="#bc322e"/>
    </clipPath>
    <clipPath id="clippath-10">
      <rect y="0" width="100" height="100" fill="none"/>
    </clipPath>
    <clipPath id="clippath-11">
      <rect y="0" width="100" height="100" fill="none"/>
    </clipPath>
  </defs>
  <g clip-path="url(#clippath)">
    <rect x="5.1" y="2.6" width="91.2" height="91.2" transform="translate(-19.2 50) rotate(-45)" fill="#bc322e"/>
  </g>
  <g clip-path="url(#clippath-1)">
    <rect x="22" y="18.1" width="55.1" height="45.9" transform="translate(-6.4 9.2) rotate(-10)" fill="#bc322e"/>
  </g>
  <polygon points="44.8 62.1 46 61.1 48.7 64.1 47.3 65.1 44.8 62.1" fill="#fb9c24"/>
  <g clip-path="url(#clippath-2)">
    <path d="M44.9,61.8c0,0,2.8,3.1,2.8,3.1l-2.2,1.4-2.2-3.4,1.5-1.1Z" fill="#fe5126"/>
    <polygon points="42.3 63.8 43.9 67.4 45.5 66.3 43.4 62.9 42.3 63.8" fill="#bf000e"/>
  </g>
  <g>
    <path d="M66.9,56.5c1.5,1,3.4,2.4,5.3,4.3,1.6,1.7,2.9,3.3,3.8,4.8.4-1.4.9-4.5,0-8.2-.9-3.7-2.9-6.1-3.9-7.2-1.7,2.1-3.4,4.2-5.1,6.4" fill="#bc322e"/>
    <g clip-path="url(#clippath-3)">
      <rect x="63.7" y="48.7" width="16.4" height="18.3" transform="translate(-19.3 43.7) rotate(-30)" fill="#bc322e"/>
    </g>
  </g>
  <g>
    <path d="M62.4,59.4c1.8.9,4.9,2.7,7.6,6,2.4,2.9,3.6,5.7,4.2,7.5l3.2-6.1c-.8-1.8-2.3-4.3-4.8-6.8-2.3-2.3-4.5-3.7-6.2-4.6-1.4,1.3-2.7,2.6-4.1,3.9" fill="#e3791c"/>
    <g clip-path="url(#clippath-4)">
      <rect x="58.7" y="52.7" width="22.3" height="22.9" transform="translate(-24 50.3) rotate(-34.2)" fill="#e3791c"/>
    </g>
  </g>
  <g>
    <path d="M57.3,62.5c1.7.8,5.7,2.7,8.5,7.2,2.6,4.3,3,7.5,3.1,9.3,1.9-2.5,4-4.2,5.9-6.6-.5-1.8-1.7-5.4-4.9-8.7-2.4-2.5-5-3.9-6.6-4.5-2,1.1-3.9,2.2-5.9,3.3" fill="#bc322e"/>
    <g clip-path="url(#clippath-5)">
      <rect x="53.5" y="56.2" width="25" height="25.9" transform="translate(-25.7 42.3) rotate(-30)" fill="#bc322e"/>
    </g>
  </g>
  <g clip-path="url(#clippath-6)">
    <rect x="47.5" y="58.7" width="25.5" height="26.8" transform="translate(-28 39.8) rotate(-30)" fill="#e3791c"/>
  </g>
  <g>
    <path d="M44.5,68.4c1.3.4,6,2,9,6.8,2.1,3.4,2.4,6.7,2.4,8.2,2.3-.3,4.6-.5,6.9-.8.2-1.6.4-6.1-2.3-10.9-2.8-4.8-6.9-6.9-8.3-7.5-2.5,1.4-5.1,2.8-7.6,4.2" fill="#bc322e"/>
    <g clip-path="url(#clippath-7)">
      <rect x="40.9" y="60.8" width="25.8" height="26" transform="translate(-29.7 36.8) rotate(-30)" fill="#bc322e"/>
    </g>
  </g>
  <g>
    <path d="M39.8,76.6c.2,0,4.4-1.4,7.6,1.3,2.1,1.8,2.5,4.2,2.5,4.9.7-.2,1.9-.5,3.2-.4,1.2,0,2.2.3,2.9.5,0-1.4-.2-5-2.7-8.6-3.1-4.5-7.7-5.7-8.9-5.9-1.6,2.7-3.2,5.5-4.8,8.2" fill="#e3791c"/>
    <g clip-path="url(#clippath-8)">
      <rect x="37" y="64.8" width="21.8" height="21.8" transform="translate(-39.5 56.1) rotate(-45)" fill="#e3791c"/>
    </g>
  </g>
  <g>
    <path d="M39.9,76.2c-.3.7-1.3,3.5-.1,6.8,1.2,3.3,3.7,4.9,4.4,5.3.4-.8,1.3-2.5,3.2-3.8,1.3-.9,2.6-1.3,3.5-1.5,0-.6-.4-3.5-2.9-5.6-1.6-1.3-3.4-1.7-4.9-1.7-1.7,0-3,.5-3.1.5" fill="#bc322e"/>
    <g clip-path="url(#clippath-9)">
      <rect x="36.3" y="73.5" width="16.8" height="17" transform="translate(-35 33.3) rotate(-30)" fill="#bc322e"/>
    </g>
  </g>
  <g clip-path="url(#clippath-10)">
    <path d="M41.1,58.7c-1.2-.6-4-2.3-5.7-5.7-.6-1.2-1.7-3.4-1.4-6.2.5-4,3.4-6.3,4-6.6l-.8-1.9c-.7,0-1.7,0-2.8.4-2.8,1.2-4.2,4.6-4.4,7.1-.5,4.8,2.7,8.2,3.6,9.2,2.9,3.1,6.3,3.6,7.5,3.8" fill="#fff"/>
    <path d="M55.6,58.7c1.4-.6,4.4-2.3,6.4-5.7.7-1.2,1.9-3.4,1.5-6.2-.5-4-3.8-6.3-4.4-6.6.3-.6.6-1.3.9-1.9.7,0,1.9,0,3.1.4,3.1,1.2,4.6,4.6,4.9,7.1.6,4.8-3,8.2-4,9.2-3.2,3.1-7,3.6-8.4,3.8" fill="#fff"/>
    <path d="M55,54.5c2.6-3,2-7.2.9-9.7-1.1-2.3-2.9-3.5-3.6-4-1.2-.8-2.8-1.9-4.9-1.8-2.8.1-4.6,2.2-5.8,3.6-.8.9-1.9,2.2-2.4,4.2-.7,3.3,1,6,1.2,6.4,2.4,3.7,6.9,4,7.5,4,.8,0,4.5.2,7-2.7" fill="#fff"/>
  </g>
  <g clip-path="url(#clippath-11)">
    <polygon points="57.2 22.6 62.5 17.5 71 15.9 74.2 20.8 73.7 27.7 69.2 34.8 65.8 28.4 60.6 23.7 57.2 22.6" fill="#fff"/>
    <polygon points="42.8 22.6 37.4 17.5 29 15.9 25.8 20.7 26.2 27.7 30.8 34.8 34.2 28.4 39.4 23.7 42.8 22.6" fill="#fff"/>
    <path d="M67.7,31c3.3-2.7,3.2-7.2,1.1-9-1.8-1.5-5.3-1.4-7.7,1,2.2,2.7,4.4,5.3,6.7,8" fill="#121a25"/>
    <path d="M32.2,31c-3.3-2.7-3.2-7.2-1.1-9,1.8-1.5,5.3-1.4,7.7,1-2.2,2.7-4.4,5.3-6.7,8" fill="#121a25"/>
    <path d="M30.9,34.7c-1.2-.9-3.2-2.9-4.4-6.2-1.3-3.6-1.7-9.3,1.3-11.6,3.2-2.4,10-1,14.9,5.2" fill="none" stroke="#000" stroke-miterlimit="10" stroke-width="3"/>
    <path d="M69.4,34.4c1.1-.9,2.8-2.4,3.9-5.6,1.2-3.5,1.5-9.1-1.3-11.3-3-2.3-9.4-1.2-13.9,4.8" fill="none" stroke="#000" stroke-miterlimit="10" stroke-width="3"/>
    <path d="M45.4,68.6c-.8.8-1.9,1.9-2.9,3.5-.5.8-1.4,2.2-2,4.3-.5,1.6-1.3,4.7,0,7.6.9,1.9,2.4,3.1,2.7,3,.3-.2-1.5-2.2-2-5.3-.5-3,0-7.2,2.8-9.5,2-1.7,5.9-1.7,4.7-2.2-.5-.2-1.8-1.1-3.3-1.4" fill="#fff"/>
    <path d="M72.1,50c1.2,1.3,5.4,6.8,4.4,15.5-1.3,10.7-11.9,19.1-19.3,18.5-2.2-.2-4.6-1.2-7.6,0-2.8,1-4.5,3.3-5.5,5-.6-.1-1.2-.3-1.6-.6-3.6-2.1-4.4-8.8-2.6-13.6,1.4-3.9,4.3-6.1,5.9-7.3,5.6-4.2,9-4.3,14.2-6.9,3.2-1.6,8-3.4,12.2-10.5Z" fill="none" stroke="#000" stroke-miterlimit="10" stroke-width="3"/>
    <line x1="37.6" y1="57.2" x2="40.3" y2="74.2" fill="none" stroke="#000" stroke-miterlimit="10" stroke-width="3"/>
    <polyline points="38.9 67 46 60.8 50 65.3" fill="none" stroke="#000" stroke-miterlimit="10" stroke-width=".6"/>
    <line x1="42.4" y1="63.9" x2="44.5" y2="68" fill="none" stroke="#000" stroke-miterlimit="10" stroke-width=".6"/>
    <path d="M58.4,38.5c0,1.7-1.3,3-3,3s-2,0-2.6-.6c-.6-.5-.4-1.6-.4-2.4,0-1.7,1.3-3,3-3s3,1.3,3,3" fill="#121a25"/>
    <path d="M37.3,38.5c0,1.7,1.3,3,3,3s2,0,2.6-.6c.6-.5.4-1.6.4-2.4,0-1.7-1.3-3-3-3s-3,1.3-3,3" fill="#121a25"/>
    <path d="M56.4,38.4c0,.6-.5,1-1,1s-1-.5-1-1,.5-1,1-1,1,.5,1,1" fill="#fff"/>
    <path d="M41.4,38.4c0,.6-.5,1-1,1s-1-.5-1-1,.5-1,1-1,1,.5,1,1" fill="#fff"/>
    <path d="M44.3,36.2c.1-.5.7-2.4-.3-3.8-1.2-1.7-4.7-2.2-7.8,0,.5-.1,2.4,0,4.6,1.2,1.9,1,3.2,2.1,3.4,2.6" fill="#fff"/>
    <path d="M51.1,36c-.1-.5-.7-2.4.3-3.8,1.2-1.7,4.7-2.2,7.8,0-.5-.1-2.4,0-4.6,1.2-1.9,1-3.2,2.1-3.4,2.6" fill="#fff"/>
    <path d="M41,49.2c.2.3,1,1.8,2.5,2.1.3,0,.8.2,1.3-.1.4-.2.9-.6.9-1.1,0-.3-.2-.6-.4-.7-.6-.3-1.1-.6-1.5-1-.7-.7-.9-1.3-1-1.8-.2-.8.5-1.7.6-1.8,1.2-1.5,4-1.7,5.6-.4.2.1,1.4,1,1.3,2.2,0,1.1-1.4,2.4-2.5,2.7-.1,0-.4,0-.5.3-.2.4.4,1.2.9,1.6,1.2.8,3.1.5,4.2-.5.5-.5.8-1,1-1.3.2,0,.4,0,.7.1.3.1.6.3.7.4-.2.5-.8,2-2.4,2.8-1.7.9-3.8.7-5.6-.4-1.1,1.2-2.8,1.5-4.2,1-1.9-.8-2.3-2.8-2.4-2.9,0-.1,0-.4.3-.6.2-.2.4-.3.5-.4" fill="#121a25"/>
    <path d="M25.3,41.9c3.2,10.5,12.5,17.9,23.2,18.5,11.7.7,22.6-6.9,26.3-18.4-.7-.7-1.7-1.9-2.9-3.4-4-5.2-4.7-8.5-6.2-10.7-5.2-7.8-25-8.4-30.6-1-1.9,2.5-2,5.6-6.1,10.9-1.4,1.8-2.8,3.2-3.6,4Z" fill="none" stroke="#000" stroke-miterlimit="10" stroke-width="3"/>
  </g>
</svg>